<?xml version="1.0"?>
    
<!--********* Copyright (c) 2024 Pareto Softare, LLC DBA Simplemaps.com ***************************************
************* Free for Commercial Use, full terms at  https://simplemaps.com/resources/svg-license ************
************* Attribution is appreciated! https://simplemaps.com *******************************************-->

<svg baseprofile="tiny" fill="#6f9c76" height="1000" stroke="#ffffff" stroke-linecap="round" stroke-linejoin="round" stroke-width=".5" version="1.2" viewbox="0 0 1000 1000" width="1000" xmlns="http://www.w3.org/2000/svg">
 <g id="features">
  <path d="M619.8 355.2l-1-0.6-8.6-6.4-34.9-10.6-12.5 4.5-2.3 3-3.7 2.5-1.8 0.8-0.7 0.2-0.6-0.2-0.5-0.4-0.1-0.1 0-0.1 0-0.2 0-0.3 0-0.2-0.2-0.2-0.4-0.3-0.2-0.2-0.7-0.5-0.1-0.2-1-0.5-0.9 0-0.6-0.5-0.2-2.2-0.4-1.3-0.8-1.1-1.7-1.4-3.2-0.9-1.7-2.4-5-2.4-1.7-2-0.2-0.3-0.9-1.8-0.3-0.5-0.6-0.3-4.2-0.2-1-0.6-1.9-2.2-3.3-0.9-1.6-1-1.6-1.7-1.5-2.1-0.6-1.5-0.6-0.1-11.6-5.5-9.4-7.3-17.9-18.6-11.6-5.2-19.3-15-11-5.6-0.8-0.4-1.4-8.2-0.1-2.1 7.4-8.3 11.2-22.2 2.7-3.6 5.6-5.8 1.8-1.2 0.9-0.9 0.5-1.3 0.8-10.1-0.2-1.4-9.4-17.5 1.6-5.8 0.6-1 5.1-1 1.9-1 1.6-1.9 3.2-5.4 0.6-1.7 4.7-18.5 0.6-1.6 0.8-1.1 12.5-10.5 2.4-4.7 0.7-0.6 8.7 5.5 8.7 5.5 0.8-0.2 0.9-1.5 0.9-2 5.6-11.6 0.7-3.3-1.6-16.2 0-2.5 0.6-7.6 0.2-1 0.3-0.5 0.5-0.2 7.5-2.9 1.4 1 4.9 5 1.7 0.5 10.3-0.8 13.4 6.7 13.7 6.1 1.2-0.1 1.2-1 7.1-9.4-8.6-5.3 5.8-5.4 2.6-4.4 3.1-8.9 0.4-1.7 0.1-1.6-0.2-7.4-0.3-1.5-7.2-9.4 7.9-0.6 7.9-0.6 1.6 1.5 3.6 0.6 2.1 2.1 1.4 0.5 0.7 1.1 0 1.6-0.5 1.3-0.9 0.5-0.1 1.7 0.7 1 5 2.2 2.5 2.3 1.9 2.1 1.8 3.4 0.4 0.5 0.2 0.2 0.2 0.7 0.1 0.3 0.3 0.2 2.1 0 0.7 0.4 0.2 0.8 0.2 1 0.9 2.6 0.4 0.8 1 0.9 2.3 0.7 2.7 2.8 1.7 1.2 0.6 2.6 5.5 1.7 1.4 1.7 0.2 0.5 0.8 1.3 0.5 0.8 0.3 0.5 0.2 0 0.2 0.3 0 0.5 0 0.6 0.1 0.4 1 0.9 7 0.1 2.1 0.6 0.1 0.2-0.1 0.8 0.2 0.2 2.4 0.2 1.9 1.1 1.4 0.2 1.2 0.9 0.6 0 0.5-0.2 0.6 0 0.8 0.9 0.9 1.5 0.9 1.1 1.8-0.8 0.8 0.8 1.3 2.8 0.8 1.2 4.5 3.2 0.5 0.6 0.2 0.7 0.1 0.7 0.1 0.7 0.4 0.8 1.4 1.7 0.5 1.4-0.2 1.9 0.3 0.6 0 0.6-0.2 2.1-0.1 0.7 0 0.5 0.1 0.7 0 0.2 0.2 0 0.2 0.5 0.6 0 2.6-1.9 1.1-0.1 0.4 0.6 0.3 0.9 1.2 4.8 0.1 0.7 0.3 0.7 2.2 2.2 0.9 0.7 2.7 3.4 2.1 0.9 0.6 1-0.1 1.4-0.7 1.6-1 0.8-2.2 0.8-1 0.9-0.5 1.4-0.2 1.9 0.1 2 0.2 1.6 0 4.8 0.1 1 0.3 1.2 0.4 3.2 0.2 1.3 0.7 2.1 0.3 1.3 0.1 1.9-0.6 0.8-1.1 0.8-0.8 0.9 0.4 1-0.6 1.6-0.7 1.4-0.4 1.5 0.4 2 1 1.3 1.2-0.1 1.2-0.5 1.2-0.1 2.1 1.3 2 0.4 0.7 0.3 0.4 0.6-0.1 1.8-0.3 2.2 0 1.8 1 0.7-0.7 2.5-0.8 1.3-3.5 1.6-0.5 0.7-0.3 1.2-0.1 1.6 0.2 0.5 0.5 0.3-0.2 1-0.3 0.9-0.3 0.7-0.4 0.6 0.2 1.6 0.5 1 0.7 0.9 0.8 1.6 0.3 0.3 0.3 0.5 0.1 0.9 0 1 0.1 0.6 0.1 0.6 0.2 0.7 1.1 2.5 0.7 1.3 0.6 0.5 0.9 0.4 0.7 1 1.8 4 1.2 1.6 0.6 1.2 0.8 2 1.2 3.8 0.1 0.6-0.1 0.7-0.5 0.2-0.7 0-0.6 0.2-0.5 1.4-1 1.7 0 0.6 0.4 2.8 0 1.5-0.2 1.6-0.2 1.4-0.3 1.2 0.2 1.4 0.2 1.4-0.1 1.3-0.3 1.1-0.6 0.7-1.6 1.2-0.1 0.8-0.6 0.8-0.9 0.5-0.8 0.6 0 1.3-0.7 0.3-0.9 0.7-0.7 1.1-0.3 1.7 0.1 1 0.6 1.4 0.1 0.7 0 1.1 0.2 1.3 0 1.1-0.1 0.8-0.3 1 0 0.7 0.1 0.8 0.4 1.7 0.3 2 1 3.8 0.8 1.3 1.1 0.9 3.2 1.2 0.6 1 1.7 5 0.2 0.6 0.4 0.5 0.7 0.8 0.3 0.5 0.3 1.1 0.8 3.7 0 1.1 0 1.7 0.6 1.4 0.8 1.5 0.7 2.9 1.2 2.1 0 1.4-0.7 1.3-1.1 0.2-2.2-0.6 0.2 0.5 0.1 0.2 0 0.2 0.3 0.1-0.7 0.5-1.5-0.4-0.7 0.5-0.2 0.4-0.2 1.2-0.2 0.4-0.3 0.1-0.3-0.2-0.2-0.3-0.5-0.2-0.3-0.3-0.2-0.4-0.1-0.5-0.1-0.7-0.2 0-0.3 0.5-1.5-0.1-0.7-0.2-0.3-1-0.3-1.2-0.7-0.5-1.5-0.1-0.5 0.4-0.7 1.6-0.5 0.5-0.3 0-0.2-0.3-0.2-0.4-0.1-0.3-2.4 0-1.3-0.4 0.1-1.1-0.2-0.3-0.4 0.1-0.4 0.2 0.1 0.1-0.3 1-0.2 0.2-0.2 0.1-0.2 0.2-0.2 0.5 0.3 0.3 0.1 0.4 0.1 0.6-0.1 0.7-0.1 0.6-0.1 0.1-0.3-0.1-0.5-0.1-0.6-0.5-0.3-1.1-0.1-1.4 0.1-1-0.6 0.1-0.5 0.6-0.4 0.7-0.4 0.5-0.7 0.1-0.6-0.6-1.2-1.4-0.5-0.4-0.5 0-0.4 0.6 0 1.3 0.2 0.9 0.5 0.6 1 1-0.5 0.3-1.9 1-0.3 0.4-0.6 0.8 0 1.4-0.8 0.8-0.8-0.2 0.3-1.5-0.9-2-0.4-0.5-1.7-0.2-1.3-0.8-0.3-0.3-0.6-1.3-0.5-0.2-0.7 0.3-0.5-0.1-0.7-0.8-0.9-3.1-0.7-1.1-3.4-3.1-0.6-0.2-0.6 0.2 0.4 0.8 0.8 1 0.3 0.8 0.1 0.6 0.1 1.9 0.1 1 0.2 0.7 0 0.8-0.1 1.1-0.2 1-0.3 0.8-0.5 0.5-0.4 0.2 0.1-1.7-0.7-0.9-1.8-0.5-0.4 0.3-1 1.2-0.4 0.1-0.2-0.6 0.2-0.9 0.4-0.7 0.2-0.4-0.4-0.9-0.4-0.6-1-1 0-0.2 0.2-0.8-2.2-0.5-1.1 0.2-0.1 1.3-1.2 0.5 1.2 2 0 0.9-0.4 0.1-1-0.4 0.3 0.7 0.5 1.6 0.4 0.7-1 1.9-1.2-0.6-1.3-1.2-1.1-0.1 0.7 1.2 0.6 0.7 0.7 0.4 2 0.5 0.7 0.5 0.4 1.2 0.4 2.1-0.4-0.1-0.4 0-0.4 0.2-0.3 0.4-0.3-1.8-0.7-0.8-0.8-0.1-0.7 0.7 0.2 0.3 0.1 0.5 0 0.6-0.3 0.6 0.2 0.4 0.3 0.6 0.3 1.5-0.7 0.4-2.2 0.1 2.3 0.9 1.1 0.1 0.6-1.5-0.2-0.8-0.7-1-0.2-0.7 0.3-0.6 0.5 0.3 0.4 0.7 0.3 0.6-0.2 0.5 1.6 0.8 0.2 0.5-1.4 1.1-0.2 0.6 0.3 0.6 0.7 0.5 1.2 0.4 0.2 0.3 0.2 0.8 0.3 1.4-0.7 0.6-0.6-0.6-0.5-1-0.6-0.5-0.9-0.1-0.6-0.4-0.8-0.8-0.3-0.1-0.4 0.4 0.2 1.1-0.9-0.2-3.1-2.4-2.3-1-0.9-1.3-0.4-0.5-1.3-0.3-1-1.3-1.9-0.6-0.5-0.5-0.3-0.4-0.6-1.4-0.4-0.5-0.9-0.7-0.5-0.6 0.7 3 1.9 1.9 3.7 2.2 2.5 2.5 2 1 0.4 0.4 0.5 0.6 0.7 1.2 0.4 0.4 0.6-0.1-0.8 0.7-1.7 0-0.9 0.3-0.3 0.3 0 0.2 0 0.3-0.2 0.5-0.3 0.3-0.3-0.4-0.3-0.4-0.2 0-0.9 0.6-4.1-1.5-0.7 0.1 1.5 2.5 0.8 0.9 0.7-0.4-0.6-0.8-0.3-0.1 0.8-0.2 1.7 2.4 0.9 0.7-0.3 1.1-0.1 0.8-0.3 0.7-0.4 0.4-0.5 0-0.4-0.5-0.8-1.5-0.3 0.9 0.1 0.8 0.3 0.7-0.1 0.7-0.4 0.5-0.6 0.1-0.6-0.3-0.2-0.8-0.9 0.8-0.9 0.5-1 0-2.5-1-0.6 0.1 0.5 1.1-1.4 0.1-0.8-0.3-0.6-1.3-0.8 0-1.2 0.5 0 0.4 1.2 0.6 0.4 0 0 0.4-2.2-0.3-1.1 0.2-0.6 1.2 0.2 0.1 0.3 0.3 0.1 0.1-1.2 1 0.6 0.2 0.7 0.4 0.6 0.7 0.4 0.9 0.5 0.6 0.7 0.2 0.6-0.4 0-1.1 0.6 0.2 0.5 0.5 1 1.3 1 0.9 0.4 0.7 0 1.1-1 1.4-1.4 0.8-1.3 0.2-1-0.7-0.3-0.7-0.6-1.9-0.4-0.9-0.4-0.7-0.5-0.6-0.5-0.4-0.6-0.2-0.9-0.8-0.9-1.6-1-1.3-1 0.2 0.2 0.1 0.3 0.3 0.1 0.1-0.4 0.9-1.2 0.1-0.4 1 3.8 1 0.9 1 1.9 3.5 1.7 2.1 2.1 4.5 0.3 1.5-0.6 0.7-1.6 0.1 0.3 0.4 0.2 0.7 0 0.7-0.6 2.1 0.2 0.4 0.5 0.2 0.6 0.4-0.1 0.1z m25.1-28.1l0.3 0.4-0.2 0.6-0.7 0.6-0.4 0.2-2.5 0.2-0.2-0.3 0-0.8 0.2-0.7 0.4-0.2 0.3 0.2 0.1 0.4 0.4 0.3 0.6-0.5 0.6-0.7 0.6 0 0.5 0.3z m-7.7 1.8l-0.2-0.3-0.2-0.8 0.1-0.6 0.1-0.3 0-0.8 0.2-0.4 0.6 0 1.1 0.6 0.1 0.5-0.2 0.2 0 0.5 0.3 0.6 0.3 0.4 0.1 0.3 0.1 0.6-0.1 0.4-0.3-0.1-0.3-0.2-0.3-0.2-1.4-0.4z m13.4-7.1l0.4 0.3 0.2 0.5-0.1 0.4-0.2 0.1-0.5-0.1-0.7-0.4-0.4-1 0.2-0.6 0.5 0.4 0.3 0.3 0.3 0.1z m-11.5 1.5l-0.7-1.4-0.2-0.8 0.3-0.3 0.4-0.3 0.5 0.1 2.3 1.6 0.2 0 0.3-0.1 0.2 0.2 0.3 0.6 0.7 0.6 0 0.7-0.5 0.3-0.3-0.1-0.4-0.6-0.4-0.5-0.4-0.3-0.4-0.1-0.3 0.2 0.1 0.6-0.1 0.1 0 0.3 0.1 0.4 0.3 0.6 0.1 0.3-0.2 0-0.4-0.2-1.5-1.9z m10.9-5.5l1.5-0.8 0.5 0.3-0.2 0.7-0.4 0.3-0.3 0.3 0 0.6-0.2 0.4-0.3 0.3-0.3-0.1-0.3-0.2-0.1 0 0.1 0.3-0.2-0.1-0.9-0.6-0.2-0.3-0.1-0.7 0.2-0.3 0.3-0.1 0.4 0.1 0.5-0.1z m-0.2-0.9l-0.3-0.5-0.2-0.3 0.4-0.5 0.9-0.1 0.2 1-0.4 0.5-0.6-0.1z m11.9-9l0.5 0.5 0.2 0.7-0.1 0.5-0.3-0.1-0.2 0-0.1 0.4 0 0.6 0.3 1.1-0.4-0.3-1-1-0.8-1.3-0.5-1.4 0.1-1.2 0.6-0.4 0.7 0 0.8 0.7 0.1 0.6-0.4 0 0 0.2 0.5 0.4z m25.4-2.7l0.1 0.3 0 0.4-0.1 0.7-0.2 0.4-0.2 0.3-0.1 0.3 0.1 0.2-0.4 0.5-1 1.1-1.2-0.8-0.6-1.1 0-1.5 0.3-0.4 0.2 0.6 0.2 0.3 0.2-0.3 0.1-0.9 0.2 0.1 0.3 0.4 0.4 0.2 0.3 0.1 0.4-0.2 0.3-0.4 0.2 0.1 0.1 0.3 0.1-0.2 0.1-0.5 0.2 0z m-32.1 2.9l-0.3-0.3-0.2-0.4 0-0.5 0.2-0.6 0-1 0.1-1.1 0.4-0.3 1.3 1.5 0.4 1.2 0.2 1.5-0.2 0.7-1.3-0.3-0.6-0.4z" id="SEBD" name="Norrbotten">
  </path>
  <path d="M434.4 260.2l0.8 0.4 11 5.6 19.3 15 11.6 5.2 17.9 18.6 9.4 7.3 11.6 5.5 0.6 0.1 0.6 1.5 1.5 2.1 1.6 1.7 1.6 1 3.3 0.9 1.9 2.2 1 0.6 4.2 0.2 0.6 0.3 0.3 0.5 0.9 1.8 0.2 0.3 1.7 2 5 2.4 1.7 2.4 3.2 0.9 1.7 1.4 0.8 1.1 0.4 1.3 0.2 2.2 0.6 0.5 0.9 0 1 0.5 0.1 0.2 0.7 0.5 0.2 0.2 0.4 0.3 0.2 0.2 0 0.2 0 0.3 0 0.2 0 0.1 0.1 0.1 0.5 0.4 0.6 0.2 0.7-0.2 1.8-0.8 3.7-2.5 2.3-3 12.5-4.5 34.9 10.6 8.6 6.4 1 0.6-0.6 0.5-2.5-0.1-0.4 0.5 0.3 1.1 0.6 1 0.2 0.4-0.9 0.8-0.3 0.1-0.3-0.1-0.6-0.4-0.4 0 0 0.2 0 0.3-0.1 0.3-0.1 0.2-0.5 0.5-0.4 0.6-0.1 0.6 0.4 0.8-0.5 0.5-3.7 0.2-0.4 0.3 0 0.5 0.1 0.4 0.2 0.5-0.2 0.8-0.2 0.5-0.3 0.6-0.4 0.4-0.4 0.2 0.3 1.9-0.6 0.7-0.6 0.6 0.2 1.3-0.4 0.4-1.1 0.4-0.5 0.1-0.5-0.4-0.2-0.7 0-0.9-0.2-0.5-0.5-0.2-0.4 0.3-0.4 0.7-0.1 1 0.1 0.9 0.4 0.4 0.9 0.4-0.1 0.7-0.1 0.3 0.6 0.7 0.5 0.2 1.2 0 1.9-0.5 2 0.9 0.7 0.6 0.2 1-0.4 0.4-1.5-0.2-0.6 0.2 0.5 1.2 0.6 1 1.4 1.3 0 0.5-0.5 0-0.2 0.4 0.1 0.5 0.4 0.5 0 0.5-0.8-0.4-1.4-1.6-0.8-0.4-0.7-0.6-0.6-1-0.6-0.8-0.7 0.2-0.4 1 0.1 1.2 0.4 1.1 0.5 0.8 0.8 0.3 1.1 0.1 0.9 0.4 0.5 1.2-0.5 0.1 0 0.7 0.4 0.8 0.5 0.3 0.7 0.1 0.3 0.1 0.3 0.3 0.2 0.3 0.2 0.9 0.1 0.2 0.3 0.2 0.4 1 0.3 0.3 0.2-0.2 0.1-0.4 0-0.3-0.1-0.1 0.2-0.8 0-0.7 0.2-0.2 0.6 0.3 0.6 0.9 0.7 1.4 0.6 0.6 0.3-1.8 0.3 0 0.3 0.3 0.1 0.3 0 1.6 0.4 0.9 0.4 0.5 0.5 0.2 0.6-0.1-0.4 0.5-0.4 0.4-0.5 0.1-0.4-0.3-0.8-1.4-0.2-0.2-1.5 1.3-0.8 0.5-0.4-0.6-0.1-0.5-0.2-0.3-0.2 0-0.2 0.3-0.1 0.4 0.2 0.2 0.4 0.1 0.6 1.3 0.4 0.3 0.3-0.4 0.4-0.3 1.2-0.1 0.4 0.1 0.1 0.3 0.2 1.2 0.1 0.5-0.4 1.1 0.1 0.7 0.4 0.5 0.5 0.1 0.3-0.2 0.4-1 0.2-0.2 0.6 0.2 0.6 0.3-0.2-1 0.4 0 0.4 0.3 0.2 0.7 0 0.9-0.1 0.7-0.4 0.1-0.4 0-0.4 0.5-0.4 0.4-0.7 0.5-0.4 0.5-1.7 3-1.2 1.3-0.6 0.9-0.7 0.7-0.7-0.7-0.5-1.1-0.5-0.6 0.1 0.7 0.1 0.6-0.1 0.6-0.1 0.6 0.2 0.2 0.1 0.2 0 0.3 0.1 0.3-0.5 0.2-0.8 0.7-0.5 0-0.5-0.2-0.2-0.3-0.2 0.1-3.8 6-0.1 0.2-1-0.5-0.1-0.1-0.2 0.4-0.8 2.1-2.4 2.9-0.5 1.4 0.3 1.2-0.2 1.2-1.2 2.7 0 0.3-0.1 0.3-0.1 0.9 0.1-0.1 0.1 0.2 0 0.4 0 0.2 0 0.3-0.1 0-0.2 0.1-0.1 0.3 0 1.4-0.1 0.8-0.2 0.3-0.3 0.1-0.3 0.3-0.1 0.4-0.1 0.1-0.7 0.4-0.5 1-0.6 2.4-0.5 2.2-0.3 0.6-1.5 1.4-1.3 0.1-0.3 0.4-0.2 0.9 0.3 0.5 0.4 0.1 0.5-0.1-0.7 1.6-0.3 0.7-0.4-0.2-0.6-1.6-0.4-0.4-0.5-0.1-1.5 1.6-0.1 0.9-0.2 0.6-0.4 0.1-0.3-0.4 0.3-0.7-0.1-0.6-0.3-0.6-0.6-0.8-0.1-0.1-1.5 3.4-0.6 0.8-0.7-0.4 0.2 0.5 0 0.4-0.1 0.3-0.1 0.6 0.2 1.5 0.1 0.4-0.2 0.8-0.3 0.8-0.4 0.6-0.3 0.2-0.5-0.2-0.4-0.6 0-0.8 0.3-1 0-0.7-0.3-0.9-0.4-0.8-0.4-0.2-0.3 0.9 0 4.2-0.3 1.7-0.4 0.2-0.4-0.5-0.4-0.8 0-0.7 0.2-0.8 0.3-1 0.1-0.9-0.1-0.9-0.6 0.9-0.6 1.5-0.3 1.7 0.2 1.6-0.7-0.2-2 0.2-0.3 0.1-0.3 0.3-0.4 0.1-0.3-0.3-0.2-0.7-0.1-0.3-0.2-0.2-0.6-0.1-0.6 0.2-0.6 0.4-0.4 0.7-0.3 0.9 0.1 0.8 0.5 1.4-2.4-1.2-0.4 0-0.5 0.5-1.1 0.6-0.2 0.3-0.4 1.8-1.1 1.2-1.3 1-1 1.1-0.1 0.7 0.5 1.8 0.2 1.6-0.1 0.2-0.8 0.2-0.3 0.3-0.3 0.6-0.7 0.7-0.4 0.2-1.5-0.9-0.1-1 0.2-0.7-0.1-0.6-0.8-0.5 0.1-0.3 0.1-0.4 0-0.3-0.4-0.2-0.8-1.2-1.6-0.6-0.4-0.5-0.6-1.1-0.7-0.5-0.7 0-0.8 0.8 0.3 0.4 0.4 0.3 0.7 0.3-0.4 1.7 0.4 0.6 0.8 0.2 0.9 0.8-0.8 0.6-0.5 0.2-0.5 0.1-0.1 0.3 0.3 0.5 1.3 1.9 0.1 0.5 0 0.7-0.3 0.2-0.6-0.3-1-1-2.5-3.3-0.8-0.4 0 0.6 0.8 2.2-0.6 0.3-0.6-0.5-0.5-0.7-0.1-0.5-3.2-8.8-3.9-6.8-0.9-1.4-0.7-0.7-1.5-0.8-0.2-0.3-0.1-0.4 0-0.6-0.3-1-0.7-0.8-0.6-0.2-1.2 0-0.6-0.1-0.7-0.4-0.7-0.9-0.6-0.4-1.4-0.5-1.5-0.9-0.5-0.1-2.3 0.1-0.6-0.2-1.8-1.3-0.5-0.5-0.3-0.4-0.1-0.6-1.9-3.7-0.1-0.6 0.1-0.2 1.1 0.1 0.3-0.2 0.1-0.4-0.1-0.8-0.2-0.9-1.3-0.8-1.9 0-19.2 6.5-25.2-4.9-3.6-2.6-1.1-1.4-14.7-16.6-1.2-0.8-0.9-0.4-1.1-0.1-2.2 0.8-0.5-0.5-0.6-1.4-0.7-2.8-1.2-1.6-6-5.2-0.7-1.3-0.3-1.5-0.3-2.8-0.4-0.8-0.6-0.9-1.2 0.3-0.4 1.1-0.2 0.8-0.4 1.9-0.8 0.4-0.2-0.1-0.2-0.2-0.4-1.3-0.2-1.2-0.1-0.4-0.1-0.3-0.5-0.7-0.8-1-5.1-4.6-0.5-0.9-0.5-0.6-0.7-0.7-0.5-0.5 0.3-0.6 1.8-1 0.3-0.3-0.1-0.2-0.6-0.5-0.7-0.5-1-1.3-0.2-0.6-0.4-0.6-0.6-0.5-1.3-1.1-1.2-0.7-1.7-0.1-0.4-0.2-0.3-0.4-0.4-1-0.6-2.7-0.4-1-0.6-1-0.6-0.4-1.1-0.7-1.6-0.6-0.5-0.4-0.4-0.3-2.3-4.2-0.4-0.8-0.4-0.9-0.6-0.9-1.7-1.9-11.1-8.1-0.3-0.2 0.2-0.6 0.8-6.7 0.5-1.7 0.6-1.1 2.5-2.5 0.9-2.1 0.2-3.4-0.3-3.8 0-3.5 1.5-17.3 0.3-1.2 2.1-4.8 0.3-1.5-0.1-3-3.2-21.1 7.8-1.1 7.8-1 13-9.2 0.3-0.9 0-1.6-0.3-2.4-0.2-1.1z m162.9 186.5l0.7-2.1 1.2 0.3 0.5 1.3-1.4 1.4 0.2-0.5-0.2-0.7-0.3-0.2-0.4 0.2-0.3 0.3z m0.9 6.7l-0.2 0.7-0.2 0.5-0.4 0.5-0.6 0 0.1-0.6 1.1-1.6 0.2 0.1 0 0.4z m0.8-5.8l0.3-0.2 0.4-0.5 0.6-0.6 0.3-0.1-0.1 0.1-0.1 0.2-0.1 0.3 0.1 0.3 0 0.3-0.2 0.3-0.1 0.5 0.1 0.5 0 0.7-0.1 0.8-0.3 0.9-0.4 0.5-0.5 0.4-0.2-0.1-0.2 0-0.5 0.5-0.1-0.7 0.6-3.3 0.3-0.5 0.2-0.3z" id="SEAC" name="Västerbotten">
  </path>
  <path d="M399.7 351.8l0.3 0.2 11.1 8.1 1.7 1.9 0.6 0.9 0.4 0.9 0.4 0.8 2.3 4.2 0.4 0.3 0.5 0.4 1.6 0.6 1.1 0.7 0.6 0.4 0.6 1 0.4 1 0.6 2.7 0.4 1 0.3 0.4 0.4 0.2 1.7 0.1 1.2 0.7 1.3 1.1 0.6 0.5 0.4 0.6 0.2 0.6 1 1.3 0.7 0.5 0.6 0.5 0.1 0.2-0.3 0.3-1.8 1-0.3 0.6 0.5 0.5 0.7 0.7 0.5 0.6 0.5 0.9 5.1 4.6 0.8 1 0.5 0.7 0.1 0.3 0.1 0.4 0.2 1.2 0.4 1.3 0.2 0.2 0.2 0.1 0.8-0.4 0.4-1.9 0.2-0.8 0.4-1.1 1.2-0.3 0.6 0.9 0.4 0.8 0.3 2.8 0.3 1.5 0.7 1.3 6 5.2 1.2 1.6 0.7 2.8 0.6 1.4 0.5 0.5 2.2-0.8 1.1 0.1 0.9 0.4 1.2 0.8 14.7 16.6-3.5 11.4-0.4 4.1-0.8 3.9-1.9 1.4-1.3 0.6-6.8 1-3-0.7-1.8 0.5-2.8 1.5-2.3 0.7-0.7 1.6 1.7 3.3 0.6 2.1 0.6 3.2 0.1 1.5 0.3 2 0.8 0.9 1.2 0.5 1.5 1.5 1.3 2.8 24 25.9-0.2 1-7.3 2.4-2 1.3-6.5 9.1-1.6 2.7-1.1 0.9-1.2 0.5-13 0.9-8.4 3.8-13.3 3.3-5.4-0.5-4 0.6-0.8 0.6-0.3 0.5 0.1 0.5 0.1 0.3 0 0.5 0 0.4 0 0.3 0 0.4 0 0.2 0.3 0.8 0.2 0.4 0.3 1.9 0.4 1.1 0 0.4-0.2 0.5-0.5 0.4-0.3 0.5 0.4 1.9 1.4 1.5 1.8 3.3 1.3 1.6 2 2 1.8 0.9 2.1 0.6 2.3-0.9 2.7 0.4 0.6 2.7 0.9 1.6 0.6 1 0.5 1.2 0.3 1.4-0.3 1.4-0.9 1.5-8.6 7.2-0.2 0.3 0.5 2.6 0.1 1.1-0.1 1.1-0.1 1.1-0.5 0.5-0.1 0.5 0 0.5 0.2 1 0 1.2-0.4 0.9-0.8-0.1-0.9-0.9-1.5-0.3-1.4 0.3-0.7 1.3-1.1 0.2-1.2-1.1-0.7 0.4 0.3 1.8-0.1 0.8-0.2 0.3-0.5-0.3-0.4-0.5-2.1-4.1-0.2-0.6-0.6 0.1-0.9 0.7-2.5 3.6-1 2.4-0.7 3.4-0.7 5.8-1.3 2.6-3 0.6-2.6-1.2-20.9-3.7-1.9-1.7-0.7-2.4-0.8-2-1.5-2.6-1.1-2.7-2.5-4.5 1-4.8 0.7-1.6-3-2.7-3 0.2-4.2-2.4-2.2-3.2-5.4-5-13.8-4.4-0.8 0.2-0.1-1-0.8-3.2-0.2-0.6-5.7-15.9-0.1-1.3 0.4-1.8 1.1-3.2 0.5-1.9 0-1.5-1.8-10.2-0.1-1.3 0.4-1.1 3.6-5.2-5-13.7-2-5.6 6.4-11.3 0.5-1.3 0-1.5-1.5-6.9 3.7-4.1 5.8-10.4 6-10.2 2.2-2.4 6.9-4.7 7.7-2.2 10.7 2.8 10.7 2.9 0.7 0 0.6-0.7 5-10.4 0.4-1.3 0-1.3-1.4-16.5-0.5-1.7-1.1-0.8-2.4-0.5-1.3-0.5-9-6.6 8-14.4 8.1-14.6 4.2-6.7 0.6-2.1 0-0.1z" id="SEZ" name="Jämtland">
  </path>
  <path d="M338.5 546.8l0.8-0.2 13.8 4.4 5.4 5 2.2 3.2 4.2 2.4 3-0.2 3 2.7-0.7 1.6-1 4.8 2.5 4.5 1.1 2.7 1.5 2.6 0.8 2 0.7 2.4 1.9 1.7 20.9 3.7 2.6 1.2 3-0.6 5.7 1.8 0.4 2.5 0.6 1 0.1 0.7 0.2 0.3 11.9 0 0.4-0.3 0.4-0.7 0.5-0.5 1.2-1.8 1 1.8 0.5 0.4 0.3 0.9 6.3 9.5 5.6 6.3 1.2 1.8 0.6 2.1 0.2 1.9 0 0.9 0 0.5 0 0.2 2 2.9 1 1.2 3.6 2 6.1 1.5 1.1 0.5 0.8 1.3 0.8 1.5 1.2 2.7 0.4 1.3 1.3 1.8 1.6 1.8 0.9 1.2 0.5 1.2 0.1 0.8-0.1 0.8-0.3 1.2-0.1 0.2-0.6 0.6-0.5 0.8-0.4 1.1-2.4 3.6-1.7 1.4-0.2 1.9 0.1 0.9 1.5 3.2 0.5 0.7 0.3 0.3 0.4 0.2 0.2 0.2 0.2 0.2 2.9 5.1 0.9 1.2 0.7 0.7 0.5 0.1 0.5 0.2 0.7 0.6 1 1 1.7 2.3 0.6 1.1 0.8 1.9 0.5 1 0.5 0.7 0.6 0.6 0.3 0.4 0.3 0.7 0.1 0.8-0.6 0.4-4.4 1.2-1.1 1.3-1.4 2.7-0.7 0.7-0.8 0.5-1.8 0.6-1.3 0.2-3-0.3-0.5-0.3-0.9-0.6-0.3-0.4-0.1-0.5 0-0.5-0.1-0.4-0.2-1.4-0.7-0.8-0.5-0.2-1-0.3-0.5-0.3-0.3-0.3-0.7 0.2-0.6-0.4-1.1-0.3-0.8 0-0.7 0.1-1.8 0.8-0.2 0-0.8-0.2-0.6 0-0.6 0.4-1.4 1.5 0 0.5 0.1 0.3 0.1 0.3-0.5 1.5-0.4 0.8-0.5 0.8-0.1 0.5 0.1 0.4 0.3 0.5 0.1 0.4 0 0.3 0 0.3 0 2.3-0.1 0.4-0.3 0.6-0.8 0.9-0.6 0.3-0.5-0.1-0.8-0.5-0.8-0.4-1.1 0-0.7 0.5-0.3 0.7-0.2 1.1-0.2 0.7-0.8 0.8-0.3 0.6-0.3 0.6-0.3 0.9-5.7-7.3-0.3-0.3-0.6-0.4-6.7-3-2.7-0.7-1.4-0.8-0.6-0.5-0.2-0.3-0.1-0.4 0-0.3 0-0.2-0.1-0.2-0.5 0-0.6 0.2-1.3 1.1-0.4 1.2-0.2 1.2 0.6 2.2-0.8 0.3-0.8 0-8.1-1.1-5.9-4.3-0.6-1.9-0.8-1.2-0.1-0.7-0.9-2.3-0.6-1.3-0.4-0.6-0.5-0.3-2.6-0.3-1.6-0.6-0.3-0.1-0.2 0.1-0.1 0.4 0.2 0.5 0.3 0.5 0.9 1.1 0.1 0.3-0.2 0.2-0.5 0.4-0.6 0.3-0.7-0.4-3.3-3.5-5.3-9-0.9-0.7-3.4-1.7-0.7-0.6-0.4-0.5-1.2-2-0.1-0.2-0.5-1.4-1-2.4-4.2-7.5-0.5-0.5-0.4-0.3-0.5-0.2-0.3-0.4-0.3-0.5-0.9-3-0.7-1.5-1.4-1.9-10.3-11.5-0.4-0.9-0.9-2.4-0.1-0.2 0.1-0.3 0.6-4.2 0.1-0.9 0.3-0.6 2.2-3.3 0.6-1.4 0.5-1.8 1-6-0.1-0.7-0.3-0.6-8-11.2-0.9-0.9-1-0.4-2-0.1-1.2-0.3-0.9-0.5-2.3-3.3-1.5-1.1-3.5-3.9-0.4-0.9 2.4-16.3 2.3-16.6 0-2.4z" id="SEW" name="Dalarna">
  </path>
  <path d="M350.5 624.5l0.1 0.2 0.9 2.4 0.4 0.9 10.3 11.5 1.4 1.9 0.7 1.5 0.9 3 0.3 0.5 0.3 0.4 0.5 0.2 0.4 0.3 0.5 0.5 4.2 7.5 1 2.4 0.5 1.4 0.1 0.2 1.2 2 0.4 0.5 0.7 0.6 3.4 1.7 0.9 0.7 5.3 9 3.3 3.5 0.7 0.4 0.6-0.3 0.5-0.4 0.2-0.2-0.1-0.3-0.9-1.1-0.3-0.5-0.2-0.5 0.1-0.4 0.2-0.1 0.3 0.1 1.6 0.6 2.6 0.3 0.5 0.3 0.4 0.6 0.6 1.3 0.9 2.3 0.1 0.7 0.8 1.2 0.6 1.9 5.9 4.3 0.2 2.1-2.6 1.7-0.5 0.4-0.1 0.5 0.2 0.4 0.3 0.3 1 0.7 0.5 0.6 0.3 1.2 0.3 5.4-0.1 3.9 0 1.5 0.3 2.4 0.3 1.1 0.4 1.4 0.2 1.2 0.3 2.5-0.1 0.9-0.1 0.4-0.4-0.2-0.3-0.1-0.3 0.1-0.2 0.5-0.2 1 0 0.7 0.2 0.6 0.3 0.5 0.6 0.6 0.1 0.2 0.1 0.9-0.2 0.6-0.3 0.6-1 1.2-0.2 0.3-0.1 0.4-0.2 0.7-1.1 2.5-0.7 2.1-0.6 2.4-0.4 3.6-0.2 2 0.1 2.7 0.1 0.8 0.4 1.8 0.1 1.2-0.1 2.4-0.5 2.4-1.8-1.4-0.4-0.2-0.4-0.1-18.6-0.6-0.8 0.2-1 0.7-1.2 1.3-0.7 1.1-1.1 1.8-0.6 1.5-0.4 1.2-0.4 1.6-0.7 2.3-0.2 0.8 0.1 0.9 0.4 1 1.4 2.4 0.1 0.6-0.3 0.3-1 0.4-0.8 0.3-2.7 0-10.9-4.3-2.1-10.2-2.2-3.7-0.3-0.6-0.2-0.8-0.2-2.8-0.2-0.8-0.4-0.6-0.6-0.5-0.4-0.4-0.3-0.5-0.4-0.3-0.7 0-1 1-0.7 1.3-0.4 0.7-0.3 0.1-0.5-0.4-0.4-0.9-0.2-0.3-0.3 0-0.5 0.1-0.6 0.4-0.2 0-0.4-0.1-0.3-0.3-0.3-0.3-1.2-0.8-0.3-0.3 0-0.3 0.1-0.3 0.4-0.2 1.1-0.2 0.3-0.2 0-0.2-0.3-0.3-0.5-0.1-2.6 0.8-0.4 0-0.9-0.6-1.6-0.6-0.4-0.4-0.3-0.5-0.4-1.2-0.6-0.5-0.9-0.1-1.7 0.3-0.6 0.5-0.1 1 0.1 0.5 0 0.3-0.2 0.2-0.3 0.3-0.3 0.1-0.4 0-2.6-2.3-0.6-0.4-0.4 0-0.5 0.3-0.3 0.3-0.4 0.1-0.4 0-2.2-0.8-0.4-0.1 0-1.3-0.2-1.3-0.7-4-3.2-11.9-0.2-1.3 0.1-1.6 0.6-0.9 4.1-2.2 0.7-0.9 1.2-1.9 0.2-0.5 0-1.1 0.2-2.3-0.1-0.9-0.3-1-0.2-0.2-0.9-1.1-0.4-0.9 0.2-2.1 0.8-0.7 0.5-0.5 1.5-0.5 4.9 0.4 1.3-0.2 4.4-3.7 4.8-5.6 1.1-1.8 0.8-2.3 0.4-2.6-0.1-2.2-0.7-4-0.3-2 0.1-1 0.4-0.9 1.7-2.1 0.5-0.9 0.5-1.2 0.4-1.5 0.2-2.2-0.1-1.9-0.5-1.8-3.3-8.8-3.3-6-0.8-2.4-0.4-2.3-0.7-4.5-0.5-2.1-1.2-2.9-0.1-1.3 0.8-0.8 7-2.1 1.8-0.1 3.4 0.6 0.7-0.3 0.2-0.7z" id="SES" name="Värmland">
  </path>
  <path d="M323.2 734.8l0.4 0.1 2.2 0.8 0.4 0 0.4-0.1 0.3-0.3 0.5-0.3 0.4 0 0.6 0.4 2.6 2.3 0.4 0 0.3-0.1 0.3-0.3 0.2-0.2 0-0.3-0.1-0.5 0.1-1 0.6-0.5 1.7-0.3 0.9 0.1 0.6 0.5 0.4 1.2 0.3 0.5 0.4 0.4 1.6 0.6 0.9 0.6 0.4 0 2.6-0.8 0.5 0.1 0.3 0.3 0 0.2-0.3 0.2-1.1 0.2-0.4 0.2-0.1 0.3 0 0.3 0.3 0.3 1.2 0.8 0.3 0.3 0.3 0.3 0.4 0.1 0.2 0 0.6-0.4 0.5-0.1 0.3 0 0.2 0.3 0.4 0.9 0.5 0.4 0.3-0.1 0.4-0.7 0.7-1.3 1-1 0.7 0 0.4 0.3 0.3 0.5 0.4 0.4 0.6 0.5 0.4 0.6 0.2 0.8 0.2 2.8 0.2 0.8 0.3 0.6 2.2 3.7 2.1 10.2 10.9 4.3 2.7 0 0.8-0.3 1-0.4 0.3-0.3-0.1-0.6-1.4-2.4-0.4-1-0.1-0.9 0.2-0.8 0.7-2.3 0.4-1.6 0.4-1.2 0.6-1.5 1.1-1.8 0.7-1.1 1.2-1.3 1-0.7 0.8-0.2 18.6 0.6 0.4 0.1 0.4 0.2 1.8 1.4 0.5 1.6 0.2 0.5 0.5 1.6 0.6 1.5 0.6 1.3 0.2 0.7 0.1 0.5-0.1 0.8 0.1 0.7 0.3 0.9 1.7 2.8 0.4 1 0.2 0.9 0 1.1 0.3 0.6 0.7 0.4 1.2 0.2 0.4 0.2 0.1 0.5 0.2 0.2 0.2 0 0.6-0.3 0.5-0.4 0.3-0.3 0-0.3 0.1-0.3 0.2-0.3 0.3-0.2 0.6 0.2 0.6 0.4 0.6 1.3 0.4 1.5 0.6 0.9 2 1.5-11.7 24.4-5.8 12.9 0 0.1 0.1 0.5 0.3 1.5 0 0.6-0.1 0.7-0.4 0.8-0.6 0.7-1 0.6-1.9 0.9-0.2 0.3-0.1 0.1-1.5 0.7-0.3 0.1-0.1 0.2-0.1 0.3-0.1 0.4-0.1 0.5 0 0.4-0.2 0.3-0.3 0.1-0.5-0.1-0.7-0.4-0.8-0.7-0.7-0.3-3.1 0.4-0.7-0.2-1.6-0.1 0.5 2.6 0 0.8-0.1 0.8-0.2 0.5-0.3 0.5-0.2 0.4-0.2 0.6-0.3 1.4-0.1 0.7 0.1 0.6 0.1 1.2-0.1 0.6-0.6 1.1-0.3 0.9-0.1 0.8-0.1 2.1-0.2 0.8-0.4 0.6-1 1.1-1.2 2.1-1.7 3.5-0.4 0.7-0.3 0.4-1.3 1.1-1.9 2.4-1.2 1.1-1.2 0.6-0.6 0.4-0.5 0.7-0.5 1.6-0.2 0.3-0.2 0.1-0.5 0.1-0.6 0.5-0.7 1.1-1.7 3.2-0.5 0.8-0.6 0.6-1.8-0.6-0.3-0.3-0.3-0.5-0.3-0.4-0.3-0.2-1.1-0.1-0.9-0.3-0.4-0.5-0.3-0.8 0.1-0.6 0.5-1.2 0.1-0.4 0.1-0.3 0-0.3-0.1-0.2-0.2-0.1-2.5-0.3-0.5-0.3-0.4-0.3-0.2-0.3-0.2-0.2-0.3 0-0.8 0.4-0.4 0-0.7-0.4-1.4-1.9-0.4-0.4-0.4-0.2-1 0-1.1-0.3-0.3 0.1-1.4 1.3-0.2 0.3-0.2 0.4-0.3 0.5-0.4 0.5-0.4 0.3-0.5 0.1-0.8-0.1-0.3-0.2-0.4-0.6-1-2.7-0.2-0.9-0.1-0.7 0.2-0.4 0.4-1.1 0.1-0.5 0.1-0.6-0.1-0.4-0.3-0.5-0.4-0.6-1-1-0.7-1-0.1-0.5 0-0.1-0.1-0.3 0.1-1.6 0.1-1 0-1-0.1-0.8-0.9-1.8-4.8 2-2.3 0.5-3.4-0.8-1.3 0.2-0.1-0.7 0.2-1.5-0.1-0.1-0.4-0.2-0.1 0-0.2 0.8-0.4 0.4-0.3-0.1-0.2-0.5-0.1-0.9-0.3-0.6-0.2-0.5-0.2-0.6 0.3-1.2 2-0.2 0.4-0.9-0.7 0.4-0.8 0.1-0.9 0-0.7-0.1-1.6-0.9-0.7-0.1 0.2 1-0.4 0.1-0.6 0-0.4-0.3-0.1-0.6 0.1-0.7 2.9-3 0.2-0.4 0-0.4-0.6-0.1-0.7 0.1-0.4 0.2-0.8-1-0.6-1.2-0.6-0.8-0.9-0.1 0.6-0.8 0.4-0.3 0.4-0.1-0.3-1.2 0.4-0.5 1.6-0.7 0-0.3-0.4 0 0-0.4 0.3-0.1 0.1-0.1 0.2-0.6-0.9-0.5 0.2-1 1.3-2.4 0.4-1.4 0.1-0.9-0.2-0.7-0.2-0.5-0.2-0.6 0.1-0.6 0.5-0.4-0.1-0.2-0.1-0.2-0.1-0.4 0.8-0.2 0.3-1 0.3-3.8 0.1-0.4 0.3-0.1 0.4-0.1 0.3-0.1 0.3-0.4 0.2-0.6-0.5 0.1-0.4-0.2-0.3-0.5-0.2-1.5-0.3-0.5-0.4-0.4-0.2-0.6-0.2-1.3 0.5-0.9 1.7-0.9-0.3-0.7-0.7 0.1-1.3 0.9-1.6-0.1-0.8 0.1 0 0.8-0.5 0.3-0.9 0.1-1.6 1.5-0.3 0.1-0.2 0.3-0.6 1-0.3 0.3-0.4 0.1-0.5 0-0.4-0.2-0.4-0.3 0.1 0.3 0.3 0.9-1-0.3-0.3-0.9 0.2-1.3 0.5-1.4 0.7-1.7 0.8-1.2 1.6-1.9-0.4-0.4 0.4-0.6 0.5-0.5 1-0.5-0.5-0.9-0.8 0.4-0.7 0.9-0.5 0.8-0.3-0.7-0.6-2-0.2-0.9-0.1 0 0.1 1.7 0 2-0.3 2-0.6 1.7-0.8 1.4-0.9 1-2.1 1.7 0.2-0.8 0.4-0.7 0.4-0.5 0.4-0.3 0-0.5-0.5 0.1-0.8 0.5-0.3-0.1-0.2-0.8 0.2-0.6 0.3-0.4 0.4-0.2 1.1-0.1-0.3-0.5-0.5-0.8 0-1.4-0.5 0-0.3 0.5-0.2 0.7-0.2 0.8-0.4 0.3-0.5 0.2-0.3-0.1 0.2-0.6 1.1-2.4 0.6-1.2 0.3-0.6 0.2-0.8-0.3 0.6-1.2 1.9-0.5 0.4-0.3 0.3-0.1 0.2-0.2 0.7-0.1 0.3-0.8 0.4-0.9-0.3-0.8 0-0.6 1.5-0.4-0.4 0-0.4 0.1-0.4 0.1-0.6-0.1-0.5-0.6-1.3 0.2-1 0.4-0.3 1.1 0.1-0.2-1.2 0.3-0.5 0.5-0.4 0.5-0.7-1.1-0.7-0.2-0.3-0.1-0.3-0.2-0.5-0.1-0.4 0.1-0.2 0.1-0.3 0.1-0.1 0.1 0 0-1.7 0.1-0.4 0.3-0.5 0.2-0.2 0.3-0.2 0.1-0.6-0.6 0 0.1-0.7-0.1-0.2-0.3-0.2-0.1-0.4 0-0.6 0.2-0.5 0-0.5-0.3-0.9-1.2-1.7 0.1-1.2 0.2-0.5-0.2-0.2-0.8 0-0.3-0.4 0.1-1.1 0.3-1 0.6-0.2-0.1-0.8 0.2-0.5 0.3-0.5 0.3-0.7 0-0.5 0-2.1-0.2-0.3-0.3-0.1-0.4-0.2-0.2-0.6 0-1.4 0-0.6-0.2-0.6 0.1-0.2 0.1-0.2 0-0.4-1.5-0.5-0.8-0.6-0.4-0.7 0.3-0.9 0.7-0.6 1.3-0.8-1.3 0.1-0.5-0.2-0.3-0.8 0.2-0.8 0.3-0.6 1.9-2.9 0.8-0.6 3.1-0.5 1 0.4 0.4 1.7 0.3 1.3 0.5 1.3 0.6 1.1 0.5 0.5 0.2 0 0 0.1 0.5 1.8 0 3.8 0.9 0.5 2 0.1 1.9-0.5 1.6-1.6 0.9-3.1 0.2-1.5 0.3-1.3 0.7-2.6 0.4-1.6 0.1-2.8 0.8-3.7 0.3-1 0.5-0.9 0.3-0.9z m-2.2 69.5l0 1 0 0.3 0.2 0.3-0.3 1.5-0.1 0.4-0.4 0.3-0.3-0.1-0.1-0.3 0.1-0.7-0.5-0.2-0.4 0.5-0.4 0.9-0.2 1.5-0.3 0.5-0.3 0.2-0.7-0.1-0.2 0.3-0.2 0.4-0.3 0.3-0.4 0-0.3-0.2-0.2-0.4-0.2-0.2-0.8 0-0.1-0.2-0.1-0.7-0.1-0.5-0.2-0.5-0.1-0.5 0.1-0.5 0.3-0.3 0.9 0.2 0.4-0.1-0.6-0.3-0.7 0-0.6-0.2-0.2-0.9 0.2-1 0.6-0.3 1.3 0.3 2.8 0 0.6-0.2 0.6-0.5 0.5-0.4 0.7 0.4z m2-9.9l0.2 1.1 0.1 1.3 0 2.5-0.3 1.1-0.7 0.3-0.8 0.2-1.5 1.1-1.6-0.6-0.8 0.5-0.5-1.1-0.8-0.2-0.9 0.3-0.6 0.6-0.4 0.6-0.1 0.4-0.1 0.2-0.3 0-0.3-0.2-1-1 0 2-0.2 0-0.2-1.4-0.1-0.4-0.9-1.1-0.3-0.5 0.1-0.8 0.6-0.9 3-3 1-0.4 0.8-0.7 0.4-0.3 0.5 0 0.9 0.2 0.5-0.2-0.2-0.6 0.1-0.6 0.2-0.5 0.3-0.3-0.1-0.5-0.1-0.3 0.5-0.3 0.5 0 1.1 0.3 0.3 1.3 0.6 0.6 0.6 0.4 0.5 0.9z" id="SEO" name="Västra Götaland">
  </path>
  <path d="M473 429.4l1.1 1.4 3.6 2.6 25.2 4.9 19.2-6.5 1.9 0 1.3 0.8 0.2 0.9 0.1 0.8-0.1 0.4-0.3 0.2-1.1-0.1-0.1 0.2 0.1 0.6 1.9 3.7 0.1 0.6 0.3 0.4 0.5 0.5 1.8 1.3 0.6 0.2 2.3-0.1 0.5 0.1 1.5 0.9 1.4 0.5 0.6 0.4 0.7 0.9 0.7 0.4 0.6 0.1 1.2 0 0.6 0.2 0.7 0.8 0.3 1 0 0.6 0.1 0.4 0.2 0.3 1.5 0.8 0.7 0.7 0.9 1.4 3.9 6.8 3.2 8.8 0.1 0.5-0.1-0.2-0.6-0.4-0.4 0.5-0.1 1.1 0 2.4 0 0.7-0.2 1.1 0 0.6 0 2-0.3 0.9-0.4 0.5-0.4-0.2-0.1-1.2-0.7 1.1-1.5 0.5-0.7 0.7 0.1 0.2 0.5 0.8-0.4 0.5-0.5 1.5-0.4 0.8 0.7 0-0.5 1.1-0.6-0.1-1.2-1.5-0.6 1.4 0.5 0.9 1 0.3 0.7 0.1-0.2 0.8-0.4 0.1-0.4-0.1-0.3 0.4-0.2 0.7-0.1 0.5-0.2 0.4-0.5 0-0.1-0.2-0.9-1.2-0.1-0.2-0.3-0.4-0.6-0.7-0.2-0.5 0.1-0.9-0.3-0.4-0.6-0.4-0.4-0.4-0.5-0.7-0.6-0.3-0.4 0.2 0.1 1.1-0.4 0.2-1.6-0.7-1.3-0.1-0.5 0.1-0.5 0.5 0.6 0.7 4.8 2-0.6 1-1 0.4-2 0 0.2 0.7 0 0.2-0.4 0.7-0.5 0-0.4-0.6-0.1-1-0.1-1.1 0.7-0.2 1.5-0.1 0-0.5-2.9-0.8-0.9 0.4 0.4 0.5 0.2 0.5 0.1 0.6 0.2 0.7 0.6 1.7 0.2 0.6-4.4-1.4-1.4 0 0 0.5 0.6 0 0.7 0.4 0.7 0.6 0.4 0.6 0.2 0.8 0.2 0.8-0.1 0.7-0.4 0.2-0.7-0.3-0.6-0.5-0.6-0.2-0.6 0.6-0.3 0.6-0.1 0.8-0.2 0.7-0.5 0.6 1.1 0-1.4 1.2-0.4 0.2-0.2 0.3-0.2 1.7-0.2 0.3-0.3-0.2-1.1-1.6-0.4-0.4-0.5-0.2-0.5 0.1-0.4 0.5 0.9 0.8 0.6 0.6 0.3 0.8-2-0.4 0-0.1-0.3-0.7-0.2-0.3-0.2-0.2-0.1 0.3 0 0.3-0.1 0.3 0.1 0.1-0.5 0.7-0.7 0.5-1.8 0.5 0.7 0.6 7.9-0.1 0.8 0.4 0.6 0.9 0.2 0.9-0.3 0.4-0.4-0.4-0.3-0.9-0.3 0-0.2 1.3-0.7 0.3-0.9-0.3-1.7-1.1-0.5 0.3-0.3 1.3 1.4 1.2 0.5 0.2 1.1-0.4 0.6-0.1 0.3 0.5-0.3 1.4-1.2 0.1-2.2-0.6 0.5 0.9 1.4 0.7 0.4 0.7-0.1 0.6-0.3 0.4-0.3 0.3-0.8 0.2-0.3 0.3-0.2 0.3-0.3 0.2-0.7 0.4-0.3 0-0.6-0.2-0.5-0.1-0.2-0.1-0.1-0.2-0.1-0.3 0-0.4-1-1.4-0.5-0.5-0.6 0 0.1 0.3 0.1 0.7-1.5 0 0 0.4 0.4 0.3 0 0.4-0.1 0.6-0.3 0.5 0.7 0.4 1-1.2 0.6 0.4-0.7 2.1-0.4 0.8-0.6 0.3-0.3 0.3-0.3 0.5-0.3 0.3-0.4-0.4 0-0.4 0.2-0.6 0.2-0.4 0.2-0.2-0.5-0.3-0.3 0.5-0.2 0.9-0.3 0.7-0.6 0.6-0.6 0.1-1.3-0.3 0.1-0.6 0.1-0.2-0.5-0.5-0.6-0.1-1.2 0.1 0.8-1.2 2.6 0.4 0.8-1.1-1.3-0.6-0.6-0.4-0.4-0.8 0.1-0.1 0-0.1 0.1-0.2-0.7 0.2-1 0.8-1 1-0.4 0.9-0.2 0.3-0.5-0.2-0.5-0.4-0.3-0.4 0-0.6 0-2.3 0-0.2-0.3-0.6-0.1-0.4 0.1-0.3 0.3-0.6 0-0.2-0.1-1-0.4 0-0.5 0.3-0.4 0-0.2-0.5-0.6-2.4-0.2-0.6-0.3-0.4-0.4-0.4-0.4-0.2 0.2-0.3 0.4-1.1-0.7 0.1-0.9 1-0.5 0.3-0.5-0.3-0.5-0.6-0.5-0.4-0.5 0.3 3.7 3.4 0.9 1.4 0.6 1.3 0.7 2.1 0.4 2.1-0.5 1.1 0 0.5 1.3 1 0.4 0.4 0.3 0.5 0.1 0.3 0 1.2 0.2 0.8 1 1.6 0.2 1.2 0 0.8-0.3 1.1 0 0.4 0.2 0.7-0.1 0.3-0.3 0.1-0.3 0.1-0.2-0.2-0.7-0.6-0.4-0.1-1.8 0 0.6 0.8 4.6 2.1 0 0.7 0.1 0.6 0.2 0.4 0.3 0.3-0.7 0.3-2.2 2-0.2-0.2 0-0.8-0.3-1.9 0-0.4 0-0.2-0.5-0.1-0.1 0.2-0.2 0.5-0.3 2.1-0.1 0.5 0 0.5-0.1 0.6-0.3 0.2-0.6 0.3 0.4 0.9-0.9 1.8-0.6 0.7-0.6 0.3-0.3-0.3-0.6-0.9-0.2-0.2-1.6 0-1.3 0.6-0.6 0.5-0.4 0.7 0 1.2 0.5 0.4 0.6 0.3 0.4 0.8-4-0.2-0.4-0.2-0.4-0.3-0.6-0.9-0.1-0.2-1.4-2.7-1.3-2-0.3-0.3-0.7 0.4-0.3 1.6-0.5 0.3-0.6 0.2-0.5 0.3-0.4 0.7 0 1 1.4 2.3 0.1 0.3 0 0.5 0 0.6 0 0.4-0.2 0.3-0.4 0.1-0.4 0.1-0.3-0.1 0.4 0.4 0.3 0.6 0.2 0.7-0.1 0.8-0.1 0.7 0.3 0.8 0.4 0.7 0.3 0.3 1-0.2 0.4 0.1 0.5 0.5 0.2 0.6 0.2 0.7 0.3 0.6 0.3 0.4 0 0.4-0.3 0-0.2 0.1-0.3 0.4 2.6 1.6 0.6-0.4 1 0.3 1 0.6 0.6 0.6-2.5 1.7-0.8 0.2-0.1-0.3 0.9-1.6-0.5-0.4-0.6 0.2-0.4 0.4-0.4 0.7-0.1 0.9 0 1.1 0.1 0.9 0 0.6-0.2 0.9-0.1 0.2-7.4-1.5-1.3-0.5-6.1-0.2-15.9-4.6-8.4-0.6-17.7-6.2-1.4-0.2-1.5 0.6-5.2 4.4-2.7-0.4-2.3 0.9-2.1-0.6-1.8-0.9-2-2-1.3-1.6-1.8-3.3-1.4-1.5-0.4-1.9 0.3-0.5 0.5-0.4 0.2-0.5 0-0.4-0.4-1.1-0.3-1.9-0.2-0.4-0.3-0.8 0-0.2 0-0.4 0-0.3 0-0.4 0-0.5-0.1-0.3-0.1-0.5 0.3-0.5 0.8-0.6 4-0.6 5.4 0.5 13.3-3.3 8.4-3.8 13-0.9 1.2-0.5 1.1-0.9 1.6-2.7 6.5-9.1 2-1.3 7.3-2.4 0.2-1-24-25.9-1.3-2.8-1.5-1.5-1.2-0.5-0.8-0.9-0.3-2-0.1-1.5-0.6-3.2-0.6-2.1-1.7-3.3 0.7-1.6 2.3-0.7 2.8-1.5 1.8-0.5 3 0.7 6.8-1 1.3-0.6 1.9-1.4 0.8-3.9 0.4-4.1 3.5-11.4z m41.8 90l-1.3 0.6-1.6-0.3-0.7-1.4 0.3-1.1 0.3-0.9 0.1-0.7 0.4-0.6 0.7-0.2 0.5 0.2 0.4 0.4 0.3 0.2 0.7-0.4 0.7 0.1 0.3 0.2 0 0.5-0.1 0.9-0.2 0.7-0.1 0.4-0.1 0.2-0.4-0.1-0.3 0.1-0.1 0.3 0.2 0.2 0.2 0.4-0.2 0.3z" id="SEY" name="Västernorrland">
  </path>
  <path d="M404.2 590.7l1.3-2.6 0.7-5.8 0.7-3.4 1-2.4 2.5-3.6 0.9-0.7 0.6-0.1 0.2 0.6 2.1 4.1 0.4 0.5 0.5 0.3 0.2-0.3 0.1-0.8-0.3-1.8 0.7-0.4 1.2 1.1 1.1-0.2 0.7-1.3 1.4-0.3 1.5 0.3 0.9 0.9 0.8 0.1 0.4-0.9 0-1.2-0.2-1 0-0.5 0.1-0.5 0.5-0.5 0.1-1.1 0.1-1.1-0.1-1.1-0.5-2.6 0.2-0.3 8.6-7.2 0.9-1.5 0.3-1.4-0.3-1.4-0.5-1.2-0.6-1-0.9-1.6-0.6-2.7 5.2-4.4 1.5-0.6 1.4 0.2 17.7 6.2 8.4 0.6 15.9 4.6 6.1 0.2 1.3 0.5 7.4 1.5-0.5 1.1-0.2 0.9-0.1 1.3 0.1 0.7-0.2 0.6-0.6 0.5 0.6 0.4-0.3 0.9-1 1.4 0.4 0.3 0.4 0.6 0.3 0.6-0.3 0.3-1.5 0.2-0.3 0.2-0.2 0.7 0.1 0.7-0.1 0.6-0.6 0.2-0.3 0.2-0.2 0.5-0.1 0.7-0.1 0.8 0.2 0.8 0.4 1.2 0.1 0.5-0.1 0.4-0.5 0.3-0.1 0.3 0-0.1 0 0.5 0 0.5 0.1 0.1 0.2 0.1 0 0.4-0.1 0.5-0.2 0.3-0.1 0.4-0.1 0.3 0.1 0.4 0.4 0.2 1.6-0.4-0.1 0.6-0.3 0.4-0.3 0.2-0.3 0.1 0 0.5 0.5 0.3 0.1 0.7-0.2 0.9 0 1.1 0.2 1.2 0.2 0.3 1.5-0.4 0.5-0.3 0.6-0.1 0.5 0.6 0.4 0.7 0.2 0.8 0 0.7-0.3 0.7-0.2 0.8 0 1.1-0.2 1-0.5 0.4-0.6-0.1-0.5-0.2-0.4-0.4-0.4-0.7-1.1-2.7-0.6-1.1-1-0.5 0.1 0.8 0.1 0.6 0.5 1.2-1.2-0.3-0.4-0.5 0.1-1-1.1-1.1-1.3-0.3-2.6 0.1 0.4 0.7 0.4 0.3 1.1-0.1 2.1 1.3-0.3 1.1-1 0.7-1.1 0.4-0.8 0 0 0.4 0.3 0.1 0.6 0.4-0.9 0.4-1.4-0.6-0.7 0.6 3.9 0.9 0.7 0.9-0.6 0.3-0.6-0.1-1.1-0.7-0.6-0.1-2.1 0.1 0 0.5 1.1-0.1 0.5 0.2 0.3 0.7-1.3 0.7-1.4 0.2 0.8 0.7 3.2 0.6 0 0.4-3-0.1-0.3 0.4 0.3 0.3 0.7 0.3 0.5 0.5 0.8 0.2 0.3 0.2 0 0.5-1.2 0 0 0.4 1.2 0.5 0.2 0.4 0.2 0.7-0.2 0.4-0.3 0.4-0.3 0.6 0.2 0.6 0.1 0.5 0.2 0.4 0.4 0.3 0.3 0 0.2-0.3 0.2-0.4 0.3-0.2 0.2 0.2 0 0.4-0.1 0.5-0.3 0.2-0.4 0.1-0.3 0.1-0.3 0.3-0.3 0.4-0.2-0.5-0.3-0.6-0.4-0.2-0.2 1.2-0.6 0.6-0.1 0.6 0.1 0.4 0.9 1.5 0.9 0.9 1 0.4 0 0.7 2.3 1.5-0.9 0.2-1-0.2-1.9-0.9 0.4 1.2 0.9 0.6 0.9 0.3 0.7 0.5-1.3-0.1-0.5-0.2-1.6-1.5-0.5-0.3-0.7 0 0 0.4 0.8 0.4 0.9 0.9 0.9 1.1 0.6 1 0.4 1.6-0.5 0.5-0.8 0.4-0.6 1 1.1 0.9-0.2 1.5-0.2 0.6-0.5 0.5 0.6 0.8 0.1 0.8-0.3 0.5-0.8 0.1 0.4 0.1 0.8 0.1 0.3 0.1 0.1 0.4 0.1 0.4-0.1 0.4-0.2 0.1-0.3 0.3-0.2 0.7-0.2 0.8-0.1 0.8 0.1 0.3 0.3 0.3 0.3 0.3-0.7 0.7-0.2 0.1 1.6-0.2 0.8 0.1 0.3 0.6-1.8 0.5-0.6 0.7-0.3 1.8 0 0.7 0 0.3 0.7 0.7 0.5 0 0.2 0.2-0.1 0.8 0.1 0.4 0.3 0.7 0.1 0.2 0.5-0.3 0.2 0.1 0.2 0.3 1.1 3.6-0.3 0.1-0.3 0.1-0.2 0.3 0 0.3 0.1 0.8 0.2 0 0.2-0.1 0.3 0.2 0 0.8 0 0.7 0 0.5 0.4 0.5 0.6 0.2 0.4 0 0.2 0.2-0.4 0.9-0.3 0.4-1 0.6-0.8 1-1.2 0.9-0.7 0.2-0.1 0.3 0 0.3 0.2 0.2 0.3-0.1 0.7-0.3 0.3-0.1 0.6 0.2 0.6 0.9 1 0.4 1.7 1.5-1.3 0.8 0 0.5 0.5 0.3 0.6 0.1 0.5-0.1-1.8 8.5-1.1 2.4-0.5 0.5-0.5 0.6-0.7 1.5-0.2 1.2 0.3 4.6-2.1 0.8-0.6 0.6-0.5 0.2-2.5-0.3-0.3-0.1-0.1-0.2-0.2 0-1.2-0.2-0.4 0.1-0.5 0.2-0.5 0.6-0.2 0.3 0 0.4 0 0.4 0 0.5-0.4 0.6-3.2 2.2-0.8 0.2-0.7 0.1-1.3-0.6-0.3-0.7-0.3-0.4-0.6-0.6-0.5-0.7-0.5-1-0.8-1.9-0.6-1.1-1.7-2.3-1-1-0.7-0.6-0.5-0.2-0.5-0.1-0.7-0.7-0.9-1.2-2.9-5.1-0.2-0.2-0.2-0.2-0.4-0.2-0.3-0.3-0.5-0.7-1.5-3.2-0.1-0.9 0.2-1.9 1.7-1.4 2.4-3.6 0.4-1.1 0.5-0.8 0.6-0.6 0.1-0.2 0.3-1.2 0.1-0.8-0.1-0.8-0.5-1.2-0.9-1.2-1.6-1.8-1.3-1.8-0.4-1.3-1.2-2.7-0.8-1.5-0.8-1.3-1.1-0.5-6.1-1.5-3.6-2-1-1.2-2-2.9 0-0.2 0-0.5 0-0.9-0.2-1.9-0.6-2.1-1.2-1.8-5.6-6.3-6.3-9.5-0.3-0.9-0.5-0.4-1-1.8-1.2 1.8-0.5 0.5-0.4 0.7-0.4 0.3-11.9 0-0.2-0.3-0.1-0.7-0.6-1-0.4-2.5-5.7-1.8z" id="SEX" name="Gävleborg">
  </path>
  <path d="M487.6 670.8l-0.3-4.6 0.2-1.2 0.7-1.5 0.5-0.6 0.5-0.5 1.1-2.4 1.8-8.5 0.1-0.1 0.5-0.4 0.6-0.4 4-0.7 0.9 0.1 0.5 0.5 0.5 0.6 1.1 0.7 0.4 0.6-0.4 0.6-1 0.7-0.3 0.2 0.1 0.9 0.5 1.4 0.1 0.7 0.4 1.3 1 0.7 2.1 0.3 0-0.4-0.4-1.8 1-1.8 1.7-1.3 3.1-1 0.9 0.1 0.8 0.7 0.6 2.1 0 0.8-0.2 0.6-0.3 0.5-0.3 0.3 0 0.4 0.8 0 0.7 0.6 1.4 1.5 1 0.8 0.2 0.4 0.2 1 0.1 0.3 0.9 1.4 1.1 0.9 2.5 1.1-0.5 0.3-0.8 0.8-0.4 0.5 0 0.5 0.5 0.5 0.2 0.3 0.2 0.5 0.5-0.5 0.8-0.9 0.6-0.4 0.5-0.1 0.4 0.1 0.9 0.5 2.2-0.1 0.6 0.5-0.1 0.2 0 0.5 0 0.5 0.1 0.5 0.1 0.2 0.7 0.6 0 0.4-0.4 0.2-0.4-0.1-0.3 0-0.4 0.4 4.2 1.6 1.2 1.3-1.2 0.6-5-1.9-0.9-1.2-1.6-2.6 0.4 2.2 1.2 1.6 1.4 1.5 1 1.5-0.6 0-0.4-0.3-0.7-1 0.2 1.5 0.6 0.8 1.5 1.1 0.7 0.9 0.4 0.3 0.5 0 0.4-0.2 0.3-0.3 0.1-0.5 0-0.1 0 1.9 0.1 0.9 0.1 0.4-1.5 2.7-1 1.3-0.3 0.8-0.1 0.6 0.2 0.4 0.3 0.3 0.3 0.2 0.2 0.3 0.1 0.2-0.2 0.2-1.2 0.7-0.4 0.4-0.3 0.5-0.2 1 0.1 2.5-0.3 1.3-0.7 1.2-1.4 1-2.1 1-1.9 0.5-1 0.7-0.8 0.9-0.8 2.1-0.5 1-0.6 0.6-2.5 0-4.2 2.6-1.8 0.6-0.9 0.4-0.4-0.1-1-0.7-0.6-0.2-1-0.1-0.3 0.1-0.2 0.3-0.4 0.6-0.6 0.8-0.5 0.4-0.6 0.2-0.3 0.1-0.1 0.2-0.1 0.3-0.1 0.7-0.3 0.7-0.1 0.9 0 0.8 0.2 0.6 0.2 0.5 0.5 0.7 0.1 0.4-0.2 0.6-1.4 2.7-0.3 0.6 0 0.5 0 0.7 0 0.8-0.1 0.7-0.3 0.5-1.1 1-0.3 0.4-0.3 1.4-0.6 1.3-0.8-1.8-0.7-0.7-1.1-0.9-1.8-1-1-0.9-0.5-1-0.1-0.4-0.1-0.2-0.1-0.1-1.2-0.9-0.9-0.5-0.7-0.1-2.3 0.4-3.2-0.7-0.3-0.9-0.3-0.9-0.9-4.7-0.5-1.7-3.2-7-0.3-0.8 0.2-0.5 1.4-1 0.4-0.6 0.2-0.8-0.1-1.4 0-0.5 0.1-0.4 0.3 0 0.4 0.1 2.1 0.8 1.7 0.3 0.2 0.2 0.4 0.8 0.3 0.4 0.4 0.2 0.6-0.2 0.5-0.4 1.3-1.1 1.6-1.1 0.4-0.8 0.3-1 0.2-1.5 0-1-0.1-0.7-0.3-0.3-0.4-0.3-0.4-0.3-0.2-0.6 0-0.3 0.1-0.2 0.4-0.6 0.9-1.9 0.3-0.4 0.3-0.1 0.8 0.1 0.4-0.1 0.6-0.6 0.5-1.1 2.4-7.5 0.3-1.5-0.2-0.9-0.6-0.7-4.3-3.6z m40.2-1l0.1 0.1 0.2 0.1 0.2 0.1 0.1 0.3-0.1 0.6-0.3 0-1.3-0.9-1.7-2-1.7-1-0.4-1.3-0.2-1.6 0.2-3.1-0.1-0.7-0.4-1.3 0.2-0.5 0.3-0.1 0.5 0.3 0.1 0.3 0.4 0.6 0.1 0.3 0 0.2 0 0.4-0.1 0.3 0.1 0.4 0.4 0.6 0.8 0.8 0.3 0.7-0.5-0.1-0.7-0.6-0.5-0.1 0.3 0.8 1.4 3 0.3 0.9 0.3 0.6 0.4 0.1 0.6-0.8 0.1 0.9 0.2 0.6 0.4 1.1z" id="SEC" name="Uppsala">
  </path>
  <path d="M494.2 726.7l0.6-1.3 0.3-1.4 0.3-0.4 1.1-1 0.3-0.5 0.1-0.7 0-0.8 0-0.7 0-0.5 0.3-0.6 1.4-2.7 0.2-0.6-0.1-0.4-0.5-0.7-0.2-0.5-0.2-0.6 0-0.8 0.1-0.9 0.3-0.7 0.1-0.7 0.1-0.3 0.1-0.2 0.3-0.1 0.6-0.2 0.5-0.4 0.6-0.8 0.4-0.6 0.2-0.3 0.3-0.1 1 0.1 0.6 0.2 1 0.7 0.4 0.1 0.9-0.4 1.8-0.6 4.2-2.6 2.5 0 0.6-0.6 0.5-1 0.8-2.1 0.8-0.9 1-0.7 1.9-0.5 2.1-1 1.4-1 0.7-1.2 0.3-1.3-0.1-2.5 0.2-1 0.3-0.5 0.4-0.4 1.2-0.7 0.2-0.2-0.1-0.2-0.2-0.3-0.3-0.2-0.3-0.3-0.2-0.4 0.1-0.6 0.3-0.8 1-1.3 1.5-2.7 0.6 2.1 0.1 0.8 0.2 0 0.2-0.9 0-1.2-0.1-1.1-0.3-0.9 0.7-0.4 0.8-0.2 0.7 0.2 1.1 1.1 1 0.2 0.5 0.7 0.1 1 0 2.1 0.2 0.9 1.3 1.9 0.2 0.8-0.4-1.6-0.6-1.5-0.3-1.6 0.4-1.7 1.1-0.7 0.5 0.3 0.1 0.2-0.1 1 0 1 0.2 0.8 1.3 4.5 1.1 2.8 0.6 0.8 1.3 0.5 0.7 0.4 0.5 0.5 0.1 0.1 0 0.2 0 0.5 0 0.1 0.5 0.7 0.2 0.2 0.3 0 0-0.3-0.1-0.7-0.1-0.3 0.6 0.1 0.5 0.3-0.1 0.9-0.1 2.4 0.1 0.5-1-0.1-0.4-0.3-2.2-3.6-1-1.3-0.9-0.5 0.3 0.7 1 2 0.2 1-0.4 1-1.9 2.9-0.5 0.5-0.7 0.2-1.4-0.1-0.6 0.2-0.5 0.5-0.2 0.8 0.6 0 1.1-0.6 7.7-0.4 1.3 0.8-0.3 1.4-0.5 0.8-0.7 0.4-1.8 0.6-0.6 0-0.5-0.3-0.3-0.4-0.3-0.9-0.2-0.4-0.4 1.1-0.6 0.7-0.8 0.6-2.2 0.7-0.7 0.6-0.1 0.9-1.1 0-0.2 0.2 0 0.5-0.1 0.4-0.2 0.3-0.3 0.2 1.5 0-0.2 0.5-0.4 0.5-0.4 0.5-0.3 0.2-0.3-0.2-0.2-0.3-0.3-0.4-0.4 0 0.6 1.1 0.2 0.7-0.3 0.3-0.4 0.2-0.7 0.8-1.3 0.6-1.7 1.7-1.7 0.7-0.8 0.7-1.4 1.9-1 0.9-1.1 0.2-2.3-0.3 0 0.4 1.1 0.8-0.5 0.4-0.8-0.1-0.4 0.1 0.6 0.3 0.4 0.5-0.1 0.9 0.5 0.5 0.7 0.2 0.6 0.1-0.9 0.7-1.8 0-1.8-0.6-0.9-0.9 0.3-0.2 0.4-0.2 0.4 0.1 0.3 0.3-0.1-0.5-0.1-1.2-0.2-0.4-0.3-0.1-0.7 0.7-0.4 0.2-0.3-0.1-0.3-0.6-0.2-0.1-0.2 0.2-0.4 0.5-0.2 0.1-0.3 0.3 0 0.7 0.2 0.7 0.2 0.4-1 0.7-0.3 0.1-0.4-0.1-0.6-0.5-0.4-0.2 4.2 4.1-1.1 0.2-0.5-0.1 0 0.7 2.4 0 0.7-0.5 0.3 0.1 0.3 0.8 0.2 0 1-2.6 1.9-0.7 2.2 0.3 1.8 1-0.2 0.2-0.3 0.4-0.2 0.2 0.9 0.3 0.4-0.1 0.4-0.7-0.8-2-0.2-0.8 1.4 0-1.2-0.9-0.6-0.5-0.3-1.1 1.8 0.2 0.8 0.3 0.7 0.8 0.1 0.2 0.1 0.8 0.1 0.2 2 1.2-0.3 0.8-0.5 0-0.6-0.3-0.6-0.1 0.7 0.4 1 0.4 1 0.5 0.4 1-0.2 0.9-0.6 0.4-1.6 0.1-0.5 0.1-0.5 0.3-0.5 0.1-0.5-0.3-0.4-0.3-0.8-0.3-0.4 0-2.6 0.4-0.8-0.4 0.1-0.3 0.1-0.7 0-0.3-0.6 0-0.5 0.3-0.5 0.4-0.5 0.6 0.4 0.3 0.4 0.4 0.3 0.5 0.2 0.4 0 0.4-1 0-0.4 0.3 0.2 0.7 1.8 1.1 0.7 0.2 0.8 0.6 0.8 0.9 0.4 1.1-2.8-2.3-0.6 0.1 0 0.7 0.5 0.4 0.6 0.3 0.4 0 0.3 0.4 0.1 0.7 0.3 0.5 0.6-0.4-0.1 0.3-0.1 0.2-0.1 0.1-0.1 0.2 0 0.5 0.8-0.4 0.3 0 0.1 0.6 0 0.7-0.3 0.5-0.3 0.3-0.3-0.3-0.7-0.2-1.1 0.4-1.1 0.6-0.5 0.6 0.3-0.1 0.3 0.1 0.3 0.3 0.1 0.5-2.8 1.4-0.9 0.2 0.4-0.4 0.8-0.5 0.4-0.3-0.4-0.4 0.2-0.3 0.2-0.1 0-0.4-0.5 0-0.5 0.1-0.4 0.3-0.3 0.6-0.4 0.3-1 0.1-0.4 0.2-0.3 0.4-0.6 1.4-0.4 0.3-1.6-0.1 0 0.3 0.1 0.7 0.1 0.3-0.8-0.4-0.3 0-0.4 0.4 0.5 0.9-0.4 1-0.8 1.1-0.5 1.4 0 0.7 0.2 0.4 0.1 0.5-0.3 0.8-0.4 0.5-0.5 0.2-0.6 0-0.4-0.3-0.2 0.7 0 0.8 0 1.7-0.4-0.4-0.3-0.5-0.1-0.7 0.2-0.8-0.3-0.8-0.1-0.2-0.2-0.3-0.3 0-0.2 0.1-0.2 0-0.5-0.3-0.3-0.4-0.5-1.1-0.4-0.4 0 0.7 0.4 1.3 0.5 1-0.4 1.1-0.1 0.3-0.2 0.2-0.2-0.3 0-0.6 0.2-0.7 0.1-0.4-1.1-0.5 0-1.1 0.1-1.3-0.3-1.1 0-0.5 0.4-0.8 0.2-1.8 0-1.8-0.1-0.8 0-0.3 0.3-1.4 0-0.7-0.3-0.3-0.4 0.2-0.4 0.5-0.1 0.6-0.1 1.8-0.1 0.9-0.3 0.3-0.3-0.2-1.1-1.4 0.1-0.9 0.6-1.3 0.2-0.8-0.2-0.7-0.2-0.6-0.4-0.6-0.3-0.3 0.4 2-0.3 0.9-0.4 0.7-0.5 0.5-0.6 0.3 0.2 1.3-0.1 1.2 0 1.1 0.5 0.9-0.3 0.9-0.3 1.3-0.2 0.8-0.3-0.3-0.3 0.4-0.9-1-1-0.5-1.3-0.2-2.1 0-0.5-0.1-0.3-0.2-0.6-1.3-0.2-0.5-0.2-0.8-0.5-4.6-0.9-2-0.3-1-0.2-0.9-0.1-0.6-0.1-0.8 0-0.6 0.1-0.4 0.2-0.4 1.2-1.2 0.2-1.2-0.1-1.6 0.2-1.4 0.3-0.7 0.4-0.5 0.4-0.2 0.5-0.1 1.1-0.1 0.5-0.3 0.2-0.7 0-0.5-0.3-0.5z m29.9 7.6l-0.1-0.2-0.3-0.8-0.1-0.3-0.5-0.4-1.6-0.8 3.6 0.1 1.8 0.5 2.7 1.9-1.5 0-0.7-0.1-0.7-0.7 0.1 1.3 0.4 0.4 1.4-0.1-0.8 1.1-0.9-0.2-1.6-1.4-1.2-0.3z m1.7 9.5l0.1 0.1 0 0.4 0 0.2-0.2 0.2-0.8 1.5-0.6 0.4-0.1 0.4-0.1 0.3 0 0.4-0.1 0.3-0.1 0.3-0.1 0.2-0.2 0.3-0.2 0.2-0.3-0.1-0.2 0-0.1 0.2-0.3 0-0.3-0.1-0.4-0.4-0.3-0.6-0.1-0.4 0.2-0.3 0.2 0.1 0.2-0.2-0.1-0.3-0.2-0.5 0-0.2 0.2 0 0.3-0.1 0.3-0.3 0.1-0.4-0.3-0.2 0.1-0.3 1.3-0.9 0.5-0.6 0.5-0.5 0.5-0.3 0.4 0 0.2 0.7 0 0.5z m7-6.6l0.8 0.1 0.2 0.1-0.3 0.4-2.1 1.4-0.3-0.1 0.2-0.7 0.3-0.6 0.4-0.6 0.4-0.2 0.4 0.2z m2.5-5.1l0.1 0 0.3 0.3-0.1 0.4-0.3 0.3-0.2 0.3-0.4 0.7 0 0.2 0 0.2-0.1 0.1-0.2 0.1-0.2 0-0.3-0.3-0.3-0.2-0.2 0-0.1 0-0.3-0.2 0.1-0.6 0.4-0.7 0.6-0.6 0.5-0.2 0.4 0.1 0.3 0.1z m-3.7-2.7l-0.4-0.4-0.3-0.5-0.2-0.3-0.3-0.5 0.3-0.2 1.2 0 0.1-0.1 0.3 0 0.2 0.1 0.3 0.3 0.5 0.8 0.2 0.1 0.1 0.1 0 0.3 0.1 0.8-0.1 0.7-0.5 0.5-1.3 0.7-0.2 0-0.1-0.3 0.1-0.4 0.2-0.1 0.1-0.2-0.1-0.4 0-0.5-0.2-0.5z m-17.3-2.7l0.5-0.2 3.5 0.9 0.3 0.4-0.5 0.1-0.2 0-0.7 0 0.2 0.2 0.4 0.6-0.3 0.6-0.7 0.2-0.7-0.1-0.8-0.5-0.5-0.5-0.2-0.5-0.1-0.4-0.2-0.3 0-0.5z m22.7-1l0.3 0.1 0.2 0.4-0.2 0.2-0.3 0.3-0.2-0.2 0-0.4 0.2-0.4z m2.7 0.5l0.1 0.3 0 0.6-0.3 0.3-0.5-0.3-0.4-0.6-0.1-0.1-0.1-0.2 0-0.4 0.2-0.4 0.4 0.1 0.5 0.4 0.2 0.3z m-0.5-2.4l-0.5 0.9-0.5 0.7-0.7-0.1-0.3-0.9 0.4-1 0.7-0.3 0.4-0.1 0.2 0.1 0.2 0.3 0.1 0.4z m-8.2-4.4l-0.3 0.2-0.3 0.3-0.1 0.6-0.3 0-0.5-0.3-0.1 0.1 0 0.3-0.1 0.1-0.2-0.1 0.3 1.2-0.1 0.7-0.3 0.2-0.3-0.2-0.1-0.5 0.1 2-0.2-0.1-0.4 0.2-0.2 0.4-0.1 0-0.2-0.4-0.1-0.5-0.2-0.6-0.2-0.4-0.3-0.6 0-0.6-0.1-0.3-0.1-0.2 0.1-0.5 0.3-0.3 0.4 0 0.3 0.2 0.3 0.6-0.1-0.3 0.1-0.2 0.2-0.1 0.2-0.1 0.2-0.1-0.3 0-0.1 0-0.1-0.1-0.2-0.1-0.2 0-0.1-0.2 0.2-0.5 0.3-0.4 0.6-0.8 0.3-0.5 0.6-0.4 0.7-0.2 0.6 0 0.6 0.2 0.3 0.4 0 0.2 0.2 0.1 0.1 0 1.4-0.4-0.1 0.3-1.7 0.9-0.7 0.8z m9.7-7.6l0.2 0.1 0.1 0.2-0.1 0.3-0.1 0-0.1 0.1-0.3 0.2-0.3 0.1-0.6-0.1-0.3-0.2-0.4 1.8-0.3 0.6-0.3 0.1-0.3 0.1-0.6-0.3-0.2-0.7 0.3-0.6 2.1-2.6 0.5-0.2 0.3 0.3 0.4 0.8z m-3.7 2l-0.7 0.6-0.1 0.1 0 0.2-0.1 0.1-0.3 0.1-0.2 0-0.8 0.5-0.4 0.1-0.4 0 0-0.2 0.6-0.3 0.6-0.5 0.6-0.8 0.3-0.4 1.2-1.4 1.8-1.5 0 0.6-0.6 0.8-1.4 1.9-0.1 0.1z m4.3-12.6l0.1 0.1 0.1 0.2 0 0.3-0.2 0.3-0.3 0.4-0.4 0.1-0.5 0-0.4-0.2-0.2-0.1-0.1 0.1-0.2 0.2-0.3 0-0.8 0.1-0.2-0.5 0.4-1 1.3-2.3 0.3-0.8 0.3-0.1 0.3 0.1 0.3 0.2 0.3 0.5 0.2 0.6 0 0.8-0.1 0.8 0 0.4 0.1-0.1 0-0.1z m-8.3-23.5l0.2 0 0-0.2-0.5-0.7 0.2-0.3 0.6 0.1 0.4 0.4 0.3 0.3 0.1 0.5 0.2 0.2 0.3 0.2 0.2 0.3 0 0.4-0.1 0.1 0 0.1 0.1-0.1 0.2-0.1 0.2 0.1 0.1 0.5 0.1 0.4-0.8 0.5-0.6 0.2-0.8-0.2-0.4-0.1-0.1-0.4-0.2-0.7 0-0.6 0.1-0.3 0.1-0.4 0.1-0.2z m-12.2 73.7l0.9-0.7 0.2 0.2-0.1 0.6-0.5 0.5-0.6 0.4-0.3 0.2-0.2 0.1-0.2 0-0.1 0.3 0.2 0.4 0.5 0.2 0.1 0.2-0.9 0.2-0.5 0.3-1 0.3-0.7 0.5-0.3 0-0.2-0.2-0.2-0.1 0.1-0.6 0.5-0.8 0.4-0.6 1.1-0.9 0.5-0.1 0.4 0 0.2-0.1 0.2-0.1 0.5-0.2z m-3.7-2.4l-0.1 0.7-0.2 0.2-0.2-0.3-0.2-0.2-0.3 0.3-0.2 0-0.3-0.5-0.1 0.1 0.1 0.6 0 0.5 0 0.5-0.1 0.5-0.5 0.2-0.4-0.1-0.5-0.7-0.2 0-0.2 0.2-0.5 0.6-0.4 0.3-0.2-0.1 0-0.3 0.1-0.2 0.1-0.9 0.2-0.3 0.4-0.2 0.1-0.2 0-0.3 0.1-0.4 0.3-0.5 0.3-0.3 0.7 0.1 0.7-0.3 0.7-0.1 1.3 0.2 0 0.3-1.1 0.5 0 0.1 0.2-0.1 0.2-0.1 0.2 0.2z m-14.9 0.9l-0.2 0.5 0 0.5 0.1 0.7 0 0.6-0.1 0.6-0.1 0.5-0.1 0.4-0.2 0.3-0.2 0.1 0 0.5 0.3 0.7-0.2 0.1-0.8-1.3-0.1 0.3-0.2-0.1-0.3-0.7 0-1-0.2-0.5-0.2 0 0-0.4 0-1.1 0.3-0.9 0.3-0.7 0.1-0.5-0.1-0.3 0-0.7-0.1-1.6 0.3-0.6 0.3 0 0.1 0.4 0.1 0.4 0.1 0 0.2 0.1 0.2 0.4 0.3 0.6 0.2 0.9 0.1 0.9 0.1 0.9z" id="SEAB" name="Stockholm">
  </path>
  <path d="M479.7 717.9l3.2 0.7 2.3-0.4 0.7 0.1 0.9 0.5 1.2 0.9 0.1 0.1 0.1 0.2 0.1 0.4 0.5 1 1 0.9 1.8 1 1.1 0.9 0.7 0.7 0.8 1.8 0.3 0.5 0 0.5-0.2 0.7-0.5 0.3-1.1 0.1-0.5 0.1-0.4 0.2-0.4 0.5-0.3 0.7-0.2 1.4 0.1 1.6-0.2 1.2-1.2 1.2-0.2 0.4-0.1 0.4 0 0.6 0.1 0.8 0.1 0.6 0.2 0.9 0.3 1 0.9 2 0.5 4.6 0.2 0.8 0.2 0.5 0.6 1.3 0.3 0.2 0.5 0.1 2.1 0 1.3 0.2 1 0.5 0.9 1-0.2 0.2-0.1 0.3 0.2 0.3 0.3 0.3 0.3 0.1 0.3 0.1 0 0.4-0.3 0.5 0.3 0.2 0.4 0.4-0.2 0.9-0.6 0.5-0.7-0.1-0.6-0.3-0.6-0.1 0.3 0.7 0.4 0.6 0.9 0.7 0 0.4-0.6 0 0.2 0.3 0.2 0.1-0.8 0-2.3-1.9-1-0.5 0 0.4 0.5 0.4 0.1 0.7-0.2 1.7-0.3 1 0 0.5 0.2 0.1 0.2 0.1 0.7 0.7-0.8 0.5-3.8-0.9 1.1 1.6 0.1 0.9-0.5 0.7-1.6 0-0.9 0.2 0 1-3.5 0-0.9-0.4-0.3-0.3-0.6-1-0.5-0.3-0.3 0.2-0.9 0.5-0.5 0.1 0.4 0.3 0.9 0.1 0.3 0.4 0 0.6-0.2 0.5-0.2 0.3-0.2 0.2 0.6 0.5 1.3-0.2 0.6 0.2 0 0.3-0.7 0.8-0.4 0.8-0.5 0.5-0.7 0-1.8-1.2-1.1-0.2-0.6 0.9 1.4 0.1 0.6 0.5 0.5 1.1-0.7 0-2.7 0.9-4.3-0.5-0.5-0.8-0.9-1-1.5-0.9-1.7-0.5-5.4-0.2-0.4-0.2-0.5-0.4-0.5-0.8-0.2-0.6-0.2-1.1-0.2-0.4-1.5-1.9-0.4-0.8-0.4-0.9-0.4-0.6-4.9-3.9-1.8-2.1-4.9-3.7-1.1-1.1-0.4-0.2-0.6 0.1-0.6 0.3-0.2 0.2-0.2 0.4-0.4 1.1-0.4 0.3-0.3 0-1.7-0.9-1.9-1.8-0.3-0.5-0.3-0.7 0.1-0.6 0.3-0.5 0.4-0.6 1.1-1.1 0.3-0.7 0.4-0.3 0.5-0.3 0.8-0.2 0.7-0.4 0.4-0.4 0.1-0.4 0-0.5-0.8-2.1-0.2-0.9-0.1-0.5 0.2-0.6 2.4-0.9 0.7-0.6 0.6-0.6 0.2-0.6 0-0.5 0-0.6 0-0.5 0.2-0.5 1.9-3.3 0.3-0.4 0.6-0.5 1.2-0.5 0.8-0.1 0.6 0 1.9 0.6 0.7 0 0.9-0.2 2.2-0.8 0.6-0.5 0.4-0.3 0.1-0.3 0.1-0.3-0.1-0.2-0.1-0.2-0.6-0.4-0.3-0.3-0.2-0.4-0.1-0.5-0.1-0.6 0.2-0.4 0.4-0.3 17-3.3 0.5 0.1 0.9-0.1 0.4-0.1 1.8-1.3z" id="SED" name="Södermanland">
  </path>
  <path d="M402.6 794.7l11.7-24.4 1.4-1.4 1.1-0.7 3.5-1 0.6-0.5 1-1.3 2.4-3.6 0.9-1 3.3-2.2 0.9-0.2 0.8 0 1.1 0.4 0.8 0.1 0.9-0.3 3.4-1.7 0.8-0.6 0.8-1.3 0.2-0.9-0.1-0.7-0.1-0.4 0-0.4 0.3-0.5 0.6-0.6 0.9-0.4 0.8-0.1 1.3-0.6 1.7 0.9 0.3 0 0.4-0.3 0.4-1.1 0.2-0.4 0.2-0.2 0.6-0.3 0.6-0.1 0.4 0.2 1.1 1.1 4.9 3.7 1.8 2.1 4.9 3.9 0.4 0.6 0.4 0.9 0.4 0.8 1.5 1.9 0.2 0.4 0.2 1.1 0.2 0.6 0.5 0.8 0.5 0.4 0.4 0.2 5.4 0.2 1.7 0.5 1.5 0.9 0.9 1 0.5 0.8-6.2-0.8-10.5-1.3 0 0.5 0.4 0.2 0.3 0.4 0.2 0.5-0.2 0.5-0.5 0.1-1.3-0.3-0.5 0.2 0 0.3 0.4-0.2 0.3-0.1 0.3 0.2 0.2 0.6 0.6-0.5 1.4 0.7 0.6-0.5 0.5-0.6 0.4-0.2 0.3 0.2 0.7 0.8 0.1 0.1 0 0.2 0 0.8 0.2 0.5 0.3 0.2 0.4-0.1 0.3-0.2 0.2-0.8 0.1-0.9 0.2-0.8 0.4-0.5 0.4 0.1 1.6 0.9 0.4 0.3 3.5-0.1 0.7 0.3 0.6 0.7 0.4 0.3 1.2 0.1 0.6 0.6-0.1-0.3-0.1-0.7 0-0.2 1 0.3 0.4 0.1-0.3 1 0.2 1 0.6 0.6 0.7 0.1-0.2 0.4-0.2 0.1 0 0.3 0.9 0 0 0.4-0.3 0.6 0.3 0.3 1.2 0.3 1.7 1.6-0.7 0.5-1.6 0-0.6 0.3 0.2 0.8-0.7 0.7-1 0.4-0.7 0.1-0.2 0.1-0.4 0.6-0.1 0.1-0.3 0-0.4-0.3-0.2-0.1-3.7-0.7-1.8-1.2-3-1-0.8 0.5 1 0.2 6.5 3.4 1 0.2 0.4 0.3 0.2 0.7 0 0.5-0.1 0.5 0 0.5 0.1 0.5 0.3 0 0.5-0.3 0.4-0.3 0-0.2 0.4 0.3 0.2 0.3 0.1 1.4-4.4-0.8 0.5 0.6 1.1 0.9 0.5 0.5-0.1 0.6 0 0.4 0.4 0.2 0.4-0.1 0.1-0.2 0-0.4-0.2-0.5 1.8-0.4 0.6 0.1-0.3 1.1-0.2 0-0.5-0.1-0.1 0.1-0.1 0.1 0 0.4 0 0.4-0.2 0.2-0.3 0.3-1.1 0.1 0 0.4 0.7 0.2 2.2 1.4-0.3 0.3-0.1 0.1 0.4 0.4 0.3 0.6 0.3 0.7 0.1 0.9-0.1 0.7-0.2 0.2-0.2-0.2-0.4-0.1-0.2 0.1 0.1 0.4 0.2 0.4 0.3 0.2-1 1.9-1.7-1.2-1.8-2-1.3-1 0.4 1 1.2 1.2 0.5 1-0.2-0.1-0.4 0.1-0.2 0 0.6 1.1 1.1 1.4 0.6 1.1-0.7 0.3 0.1 0.7-0.1 0.4-0.4 0.2-0.4-0.1 0.6 0.5 0.5 0.2 0.5 0.4 0.4 0.8-0.2 0.5-0.3 0.1-0.2-0.1-0.3-0.5-0.9 0.6-0.1 0.3 0.4 0.7-0.6-0.5-0.7-1.7-0.4-0.2-0.4 0.6 0.2 0.8 0.7 1.4 0.3-0.1 0.5 0.1 0 0.1-0.8 0-0.5-0.2-0.1-0.2-0.2-0.2-0.1-0.2-0.4-0.9-0.2-0.8-0.4-2.7-0.2-0.5-0.4-0.4-0.4-0.3-0.5 0-1.1 0.2-0.3-0.1-0.4-0.3-0.4-0.4-0.4-0.4-0.7-0.5-0.6 0-0.6 0-1 0.3-2-0.2-0.7 0.2-1.9 0.7-0.6 0.4-0.4 0.7-0.1 0.5-0.2 0.5-0.4 0.1-0.9-0.2-1 0.1-1.8-0.4-0.5 0.1-0.1 0.3 0.2 0.3 0.2 0.3 0.1 0.3-0.1 0.3-0.1 0.5-0.1 0.4 0 0.5 0.3 0.5 1.1 1.7 0.1 0.3 0.1 0.4-0.2 0.5-0.2 0.4-0.4 0.7-0.2 0.3 0 0.5 0 0.7 0.3 1 0.1 0.9-0.1 0.7-0.4 0.8-1.2 1.6-0.8 0.7-0.6 0.2-0.8 0-0.9-0.6-2.1-0.5-1.4-0.9-0.5-0.3-1.2-0.2-0.7 0.1-1.1 0.2-0.5 0.3-0.6 0.3-0.9 1.5-0.6 0.7-0.3 0.5-0.3 0.8-0.4 0.4-0.5 0.4-1.3 0.5-0.7 0.4-0.2 0.3-0.2 0.6 0 0.3-0.4 1.3-7.4-0.7-0.7-0.2-0.7-0.7-0.6-1.3-0.8-2-0.4-1.2-0.1-0.8-0.1-0.7-0.2-0.7-0.3-0.7-1.1-1.9-0.3-0.6 0.1-0.6 0.1-0.3 0.1-0.4-0.1-0.3-0.2-0.5 0-0.3 0.3-0.7 0.1-0.4 0.1-0.6 0.2-0.4 0.2-0.3 0.7-0.2 0.3-0.1 0.2-0.2 0.2-0.2 0.1-0.3-0.1-0.4-0.2-0.4-0.8-1.1-0.2-0.5-0.1-0.3-0.2-1.3-0.4-1.4-0.2-0.7-0.6-1.2-0.1-0.4-0.2-0.3-0.2-0.1-1.7 0.5-0.3 0.2-0.1 0.3-0.2 1-0.2 0.5-0.5 0.6-0.6 0.3-1.2 0.1-7.2-1-2.5-1.3-0.9-1.1-1.8-4.1z m74.1-4.6l0.3 0.3 0.1 0.4-0.1 0.7-0.3 0.5-0.4 0-0.2-0.2-0.4-0.9-0.1-0.8 0.4-0.3 0.7 0.3z m0.7-1.7l0.6-0.2 0.2 0.1-0.1 0.1-0.2 0.3-0.1 0.2-0.3 0.3-0.4 0.2-0.5 0-0.6-0.2-0.5-0.4-0.4-0.7-0.2-0.5-0.1-0.3-0.2-0.3 0.1-0.4-0.2-0.3-0.3-0.5 0.1-0.6 0.6-0.3 0.2 0 0.4-0.3 0.2 0 0.2 0.1 0.4-0.2 0.1 0.1 0.2 0.1-0.1 0.4-0.3 0.5-0.4 0.1-0.3 0 0.6 0.5-0.1 0.2-0.3 0-0.2 0.3 0.1 0.4 0.4 0.7 0.8 0.7 0.6-0.1z" id="SEE" name="Östergötland">
  </path>
  <path d="M433.4 824.1l0.4-1.3 0-0.3 0.2-0.6 0.2-0.3 0.7-0.4 1.3-0.5 0.5-0.4 0.4-0.4 0.3-0.8 0.3-0.5 0.6-0.7 0.9-1.5 0.6-0.3 0.5-0.3 1.1-0.2 0.7-0.1 1.2 0.2 0.5 0.3 1.4 0.9 2.1 0.5 0.9 0.6 0.8 0 0.6-0.2 0.8-0.7 1.2-1.6 0.4-0.8 0.1-0.7-0.1-0.9-0.3-1 0-0.7 0-0.5 0.2-0.3 0.4-0.7 0.2-0.4 0.2-0.5-0.1-0.4-0.1-0.3-1.1-1.7-0.3-0.5 0-0.5 0.1-0.4 0.1-0.5 0.1-0.3-0.1-0.3-0.2-0.3-0.2-0.3 0.1-0.3 0.5-0.1 1.8 0.4 1-0.1 0.9 0.2 0.4-0.1 0.2-0.5 0.1-0.5 0.4-0.7 0.6-0.4 1.9-0.7 0.7-0.2 2 0.2 1-0.3 0.6 0 0.6 0 0.7 0.5 0.4 0.4 0.4 0.4 0.4 0.3 0.3 0.1 1.1-0.2 0.5 0 0.4 0.3 0.4 0.4 0.2 0.5 0.4 2.7 0.2 0.8 0.4 0.9 0.1 0.2 0.2 0.2 0.1 0.2 0.5 0.2 0.8 0 0.3 1 0.3 0.5 0.3-0.2 0.3-0.5 0.3 0.2 0.1 0.5 0.1 0.9 0.1 0.4 0.8 0.9 0.3 0.5-0.5 0-1.2-0.8 0.3 0.9 0.9 0.8 0.1 0.7-0.3 0.6-0.6 0-0.5-0.4-0.4-0.4-0.6-1.5-0.2-0.1-0.1 1.2-0.3 0.4-0.6 0-1.2-0.2 0.1-0.5 0-0.5-0.1-0.5-0.2-0.5 0.3 0 0.3 0 0.3 0.2 0.3 0.2-3.9-4.4-0.3 0-0.2 0.3-0.1 0.6 0 0.3 0.3 0.5 0.8 1.1 1.8 0.8-0.2 0.2-0.3 0.5-0.2 0.1 0.2 0.6 0.1 0.6-0.2 0.4-0.3 0.4-0.5-0.7-0.6-0.4-1.4-0.5 0.5 0.7-0.3 0.5-0.2-0.2-0.6-0.3 0 0.5 6.5 7.4 1 0.8-0.2 0.4-0.5-0.2-1.5-1.1-0.4-0.5-2.4-3.7-3.7-3.1 0.2 1 0.4 0.6 1 1.1 1.7 1.2 1.3 1.7 0.3 0.5 0.2 0.5 0.2 0.3 0.4 0.1 0.3 0.3 1.1 1.1 0.3 0.6-0.4 0.4 0.7 0 0.5 0.2 0.4 0.5 0.3 0.8-0.6 0 0 0.4 0.4 0 0 0.4-2.1-0.2-0.9-0.4-0.9-0.6 0.2 0.5 0.5 0.7 0.3 0.4 0.3 0.9-0.1 0.4-0.4 0.1-0.7-0.3 0.3 0.6 0.4 0.1 0.3 0.1 0.3 0.4 0.2 0.7-0.2 0.2-0.2 0.2-0.3 0.3-0.3 0.3-0.9 0.9-0.2 0.1-0.1-0.2-0.1-0.5 0-0.7 0-0.5-0.2 0.3-0.3 0.1-0.3-0.1-0.3-0.3 0.3 0.7 0.2 0.2 0.2 0.2-0.5 0.7-0.2 0.1 0 0.4 0.7 0.4 0 0.4-0.8 0 0 0.3 2.3 0.1 1.1 0.5 0.9 2.3 0.7 1.5 0.3 1-0.9-0.3 0.3 1-0.1 0.2-0.5 0.1-0.4 0.3-0.1 0.6 0.1 0.6 0.5 0.5 0.6 0.2-0.5 0.3-0.6 0.2-0.4 0.4 0.2 1-1.8-0.4-0.7 0.3-0.4 1.3 1 0.7-0.3 0.6-0.3 0.2 0 0.2 0.4 0.6-2.3 1.4-0.5 1 0.8 1.9-0.9 0.8-0.3 1.3 0.3 1.5 0.4 1.3 0.9 1.5 0.3 0.4 0.4 0.2 0.2-0.1 0.1 0.1 0.3 0.4 0.5 1.3-0.4 0.3 0.2 0.7 0.4 0.7 0.2 0.6-0.3 0.1-1.1-0.4-0.1-0.2 0.1-0.2 0-0.3-0.2-0.1-0.2 0.1-0.1 0.1-0.1 0.1 0 0.1-0.2 0.1 0 0.3-0.1 0.3 0 0.2-0.2 0.1-0.1-0.1-0.1-0.1-0.5-0.1-0.7-0.3-0.4 0 0.2 0.4 0.3 0.3 0.2 0.3 0.3 0.1 0 0.4-0.6 0-0.4 0.6-0.2 0.9 0.2 1.2 0.3 0.6 0.3 0.5 0.3 0.4-0.2 0.6-0.8 1.5 0 0.4 0.1 1.4 0 0.7-0.1 0.5-0.8 2.7-0.1 0.5 0.3 0.6 0.3 0.3 0.4-0.2 0.4-0.4 0.3-0.2 0.3 0.2 0 0.4 0 0.5-0.2 0.4-0.4 0.1-0.8-0.4-0.4-0.1-0.5 0.2-0.6 0.5-0.5 0.1-0.1 0.3 0.2 0.6 0.4 1.2 0.1 1.7 0 1.1-0.3 0.7-0.4 0.4-0.5 0.2-0.5-0.1-0.7-0.6-0.4 0.1-0.4 0.3-0.3 0.2-0.3 0.1-0.3 0.5-0.7 1.5-0.1 0.3 0.1 0.3-0.1 0.6-0.1 1.2-0.1 1.3-0.2 0.5-0.8 0.1-0.2 0.5-0.2 1.1-1.5 2.9-0.7 2-0.8 4.5-0.2 0-0.6 0.3-0.3 0.3-0.6 0.1-1-0.1-3.6-1.4-1.8-1.3-2.3-2.9-1.7-1.6-2.2-2.5-0.6-0.4-0.5 0-0.3 0-0.3 0.3-0.1 0.2-0.1 0.1-0.1 0.2-0.1 0.3-0.2 0.1-0.3 0-1.6-0.4-0.6-0.3-0.6-0.1-0.7 0.1-0.2 0.1-0.8 0.9-0.2-0.5 0-0.3 0-0.2 0.4-1.7 0.2-0.5 0.3-0.4 0.3-0.2 0.3-0.4 0.1-0.6 0-1 0.3-5-0.1-1.1-0.1-0.7-0.4-1.4-0.2-1.2 0-0.5 0.3-0.4 0.7-0.4 0.3-0.2 0.4-0.4 0.3-0.3 0.5 0 1.4-0.1 0.4-0.1 0.4-0.4 0.3-0.4 0.1-0.5-0.1-0.7-0.1-0.8-0.3-0.9-0.5-1.4 0-0.6 0.2-0.4 0.4-0.4 0.4-0.2 0.4-0.1 0.6 0.1 1.9 1.1 0.3 0 0.2 0 0.6-0.3 2.7 0 0.9-0.3 0.7-0.8 0.4-0.9 0-0.8-0.2-0.8-0.6-1.2-0.1-0.3 0-0.3-0.1-0.4-0.3-0.5-1.6-2.4-0.3-0.6-0.3-0.4-1.3-1.4-0.3-0.4-0.1-0.4 0-0.3-0.1-0.2-0.3-0.3-1.7-0.8-0.5-0.4-0.2-0.7 0.1-0.8-0.1-0.5-0.2-0.4-0.8-0.7-0.2-1.6-1.2-2-0.2-0.8-0.1-0.6 0.1-0.5 0.1-0.3 0.4-0.4 0.3-0.4 0.1-0.9-0.2-1.6 0.1-0.6 0.3-1.1 0-0.5-0.2-1.5 0.1-0.8 0.3-0.5 0.3-0.3 0.3-0.1 0.3 0 0.2 0.2 0.2 0.2 0.2 0.4 0.2 0.3 0.2 0.2 0.3 0 0.2-0.3 0.3-0.5 0.2-1 0.1-0.6 0.3-0.5 0-0.1 0.1-0.1 0.3-0.4 0-0.6 0-0.6-0.1-0.4-0.3-0.2-0.7-0.3-0.3-0.2-0.1-0.5 0.1-0.4 1.4-2.1 0.1-0.4-0.1-0.2-0.6-0.2-0.3-0.3-0.1-0.3-0.2-0.5-0.3-0.3-0.3-0.2-0.6-0.4-0.2-0.1-0.2-0.1-0.6-0.1-0.3-0.2-1-0.9-1-0.8-0.3-0.3-0.7-0.9z m51.1 22.2l-0.9 0.1-0.6 0.7-1 1.9 0.7 1.6 0 0.9-0.5 1.4 0 0.5 0 0.2-0.1 0.1-0.4 0.2-0.1 0.1-0.2 0.5-0.1 0.9-0.1 0.5-1.3 2.4-0.2 0.9-0.2 1.4-0.5 0.7-0.7 0.3-0.7 0.4 0.2 0.5 0.3 0.3 0.3 0.3 0.3 0.1-0.6 0.5-0.5 0.7-0.8 1.5 0.2 0.7 0.2 1.1-0.1 1.1-0.4 0.5-0.3 0.6-0.5 2.9-0.4 1-1.4 0.9-0.2 0.3-0.2 0.4-0.2 0.6 0 0.5 0 0.6-0.2 1.1-1.8 5.6-0.2 1.1-0.1 1.3-0.1 0.5-0.3 0.5-0.3 0.5-0.2 0.2-0.4 0.2-0.2 0.4-0.2 1.3 0 0.3 0.2 0.1 0 0.3-0.1 0.3-0.2 0.6-0.1 0.2-0.1 1 0 0.6-0.2 0.5-0.5 1-0.4 1.2-0.3 1.1-0.2 1 0 0.5 0 1.2-0.1 0.6-0.4 0.8-0.1 0.5-0.2 0.9-1.6 3.6-0.5 0.7-0.7 0.5-0.7 0-0.4-0.6-0.1-0.5 0.1-1.3 0-0.5-0.4-1.5 0.2-1.2 0-1.3 0-2.4 0.2-0.8-0.2-1-0.3-1-0.2-1.1 0.3-4.7 0-0.6 0.6-1.7 0.7-1.3 0.1-0.4 0.2-1.1 5.1-13 0.5-0.6 0.6-0.2 1-0.1 0.8-0.2 0.4-0.7 0.6-2.1 1.3-3.5 1.6-3 1.3-3.4 0.5-4.1 0.2-0.6 0.2-0.2 0.7-0.3 0.4-0.6 0.2-0.4 0-3.2 0.2-1 0.7-0.7 0.9-1.5 0.5-0.5 0.6-0.3 0.3 0 0.2 0.8 0.3 0.1 0.3-0.1 0.1-0.5 0.3 0 0 0.2 0 0.2 0.1 0.1 0.1 0.2 0.1 0.3 0.1 0.2 0.1 0.3 0.1 0.4z" id="SEH" name="Kalmar">
  </path>
  <path d="M431 892.8l0.8-0.9 0.2-0.1 0.7-0.1 0.6 0.1 0.6 0.3 1.6 0.4 0.3 0 0.2-0.1 0.1-0.3 0.1-0.2 0.1-0.1 0.1-0.2 0.3-0.3 0.3 0 0.5 0 0.6 0.4 2.2 2.5 1.7 1.6 2.3 2.9 1.8 1.3 3.6 1.4 1 0.1 0.6-0.1 0.3-0.3 0.6-0.3 0.2 0-0.9 4.5-0.2 0.3-0.3 0.1-0.2 0.5-0.1 0.5-0.2 0.5-0.5 0.6-1.2 1.2-0.5 0.7-1.8 3.9-0.7 0.9-0.5-0.1-0.5-0.6-0.9-0.4 0.9-1.9 0.3-1-0.6-0.5-1.5 0.6-0.8 0-0.6-0.9-0.3 0.2-0.2-0.2-0.1-0.3-0.3-0.1-0.4-0.1-0.4-0.5-0.2-0.1-0.5 0.5-0.6 0.8-0.6 0.5-0.5-0.7 0.2-0.4 0.3-0.6 0.1-0.6-0.3-0.3-0.4 0.1-1.2 1-1.3 0.7-0.1 0.2-0.1 0.9-0.1 0.2-0.7-0.5-0.2-0.3-0.2-0.3-0.4-0.4-0.4-0.1-0.5 0.1-0.3 0.2-0.5 0.8-0.2 0.5 0 0.4-0.1 0.2-1.4 0.1-0.4-0.2-0.4-0.3 0.6-0.3 0.3 0-0.2-0.5-0.7-1.4-0.6 0.9-1.2 0.8-1.3 0.2-0.9-0.6-0.2-0.2-0.3 0.1-0.2 0.2-0.2 0.1-1.2 0-0.2-0.2-0.1-1-0.2-0.3-0.2 0-0.8 0.3-0.3 0.1 0.1 0.3 0.3 0.9 0.1 0.3-1.9-0.8-1-0.3-0.8 0.5-0.7 0.2-1-0.2-0.7 0 0 0.9-0.6 0.3-0.5-0.4-0.5-0.6-0.7-0.4-1.5 0-0.7 0.4-0.5 0.7 0 0.5-0.1 0.6 0 0.6 0.2 0.2 0.5 0.2 0.2 0.4 0.1 0.5 0.2 0.5 0.8 1.3 0.3 0.6 0.3 1-0.3 0.2-0.4 0.3-0.4 0.4-0.2 0.4-0.3 0.2-0.1-0.2-0.2-0.6-0.6 0-0.2 0.5-0.1 0.2-0.3-0.1-0.2-0.1-0.3-0.1-0.8 0-0.3 0-0.1-0.3 0.5-0.5-0.3-0.3-0.2-0.4-0.2-0.4 0-0.7-0.6 0.8-0.3-0.4-0.2-0.3 0.1-0.1-0.4 0.2-0.1 0 0.1-2.3 0.4-1.3 0.4-0.9 0.1-1 0-1.2-0.3-1.3-0.6-1.5-0.2-0.4-0.2-0.2-0.3 0-0.3-0.1-0.5 0-0.2-0.2-0.3-0.2-0.9-0.4-0.3-0.5-0.2-0.7-0.1-0.9-0.2-0.7-0.6-1.2-0.1-0.5 0.1-0.4 1.3-3.4 0.5-0.9 2-2.9 1.7 0.7 1 0.8 1.1 1.2 1.1 1 0.7 0.4 4.4 1.3 0.8 0 0.6-0.2 1-0.9 1.1-1.5 0.2-0.4 0.1-0.4 0-0.4 0.3-0.2 0.3-0.1 1.3-0.1 1.4-0.4 0.6 0 0.4 0.1 0.9 0.6 0.7 0.3 0.5 0.1 0.3 0 0.2-0.2 0.2-0.2 0.1-0.3 0.2-0.4 0.3-0.3 0.6-0.2 0.6 0 0.9 0.2 0.4 0 0.4-0.1 0.6-0.7z m10.4 20l0.4 0 0.2-0.1 0 0.3-0.3 0.3-0.4 0.1-0.1 0.3 0.1 0.6 0 0.5 0 0.2-0.2 0.1-0.2 0-0.2 0-1-0.8-0.2-0.8 0.4-0.8 0.4-0.3 0.2 0.2 0.2 0.2 0.3 0 0.4 0z" id="SEK" name="Blekinge">
  </path>
  <path d="M406 893.1l-2 2.9-0.5 0.9-1.3 3.4-0.1 0.4 0.1 0.5 0.6 1.2 0.2 0.7 0.1 0.9 0.2 0.7 0.3 0.5 0.9 0.4 0.3 0.2 0.2 0.2 0.5 0 0.3 0.1 0.3 0 0.2 0.2 0.2 0.4 0.6 1.5 0.3 1.3 0 1.2-0.1 1-0.4 0.9-0.4 1.3-0.1 2.3-0.6 0.5-0.3 0.1-0.8 0.2-0.5 0.4-1.1 1.6-1.1 1.4-0.7 0.6-0.6 0.2-0.6 0.5-0.4 1-0.3 1-0.3 0.5-1.3 0.7-1.1 1.7-0.7 2.2-0.4 2.3-0.1 2 0.1 0.9 0.3 0.9 0.5 0.7 1.1 0.9 0.4 0.6 0.1 0.6 0 0.6 0 0.6 0.3 0.6 0.3 0.4 0.6 0.7 1.3 2.1 0.3 1-0.2 1.2-0.4 0.7-1.6 1.8-0.6 0.4-0.3 0.4-1.4 2.5-0.6 0.8-0.6 0.5-0.7 0.2-1.9 0-0.9-0.2-0.9-0.4-2.4-1.6-0.8-0.3-1-0.1-0.5 0.1-0.7 0.5-0.5 0.1-0.4 0-1.4-0.3-4.1 0.3-0.5 0.2-0.4 0.4-0.3 0.5-0.3 0.4-0.5 0.3-1.3-0.3-1.1 0.3-2.8 1.9-0.9 0.4-2.1 0.1-0.9-0.1-5-1.9-1.7 0-0.6-0.2-0.3-0.1-0.2-0.1-0.5-0.5-0.2-0.1-0.7-0.2-0.6 0.2-0.3 0.2-0.5 0.4-0.3 0.1-0.4 0-0.4-0.3-0.3-0.1-0.6 0.3-0.6 0.3-0.4 0-0.1-0.9 0.9-1.9 0.2 0 0.2 0 0.2 0.2 0.2 0.4 0.6 0.3 0.7 0 0.7-0.4 0.4-0.5-0.2-0.7 0.1-0.3 0.3 0 0.4 0.3-0.3-1.4-1.4-2.4-0.3-1.5 0.3-1.7 0.9-1 2.1-1.6 0.3-0.4 0.4-0.7 0.2-0.7 0.1-0.7-0.2-1.1-0.4-0.6-0.4-0.4-0.5-0.8-0.6 0.1-0.5 0-0.3-1.1-0.7 0-0.6-0.2-0.3-0.8 0.3 0 0.3-0.3 0.1-0.4 0.1-0.7-0.4-2.4-1-1-1.3-0.7-0.9-1.1-0.3-0.8-0.1-0.5 0-0.8-0.1-0.2-0.2-0.3-0.2-0.3-0.2-0.1-0.4-0.3-0.2-0.9-0.1-1-0.3-0.8-0.5-0.5-0.5-0.3-0.3-0.5-0.1-1.1-0.2-0.5-2.7-3.6-0.2-0.3-1.2-2.7-0.3-0.5-0.3-1.7-0.1-0.6-0.7-1.6-0.4-1.2-1.2-0.9-0.4-0.7 5.9 2.5 0.2 0.2 0.4 0.8 0.3 0.2 0.2 0.1 0.5 0.5 0.2 0.1 0.3 0 0.4-0.3 0.2 0 1.3 0.1 0.6-0.1 0.5-0.4 0.4-0.8 0.2-0.8-0.1-0.7-1.4-0.8-0.6-1.2-1-2.5-2.7-2-0.6-1.2 1-2 1.8-0.7 3.6 1.4 1.7-0.7 0.5-0.7 0.2-0.4 0.5 0.8 1.4 0.9 0.2 0.3 0.1 0.2 0.1 0.4 0 0.4-0.1 0.4-0.1 0.5-0.2 0.5 0 0.4 0.1 0.4 0.2 0.2 1 0.3 4.2 0.8 0.4 0.3 0.3 0.4 0.4 0.3 0.5 0 0.7-0.2 0.8-0.8 0.5-0.8 0.6-0.7 0.8-0.6 2.1-1.3 0.9-0.4 1-0.1 1.5 0.2 2.3 0 12.6-3 0.9-0.4 0.6-0.4 0.1-0.3 0.2-0.7 0.1-0.4 0.2-0.4 0.5-0.4 0.5-0.4 0.4-0.1 0.5 0.2 0.7 0.7 0.4 0.2 3.6-0.1 0.9 0.2 1.5 0.7 5.5 1.7z" id="SEM" name="Skåne">
  </path>
  <path d="M326.3 831.4l1.3-0.2 3.4 0.8 2.3-0.5 4.8-2 0.9 1.8 0.1 0.8 0 1-0.1 1-0.1 1.6 0.1 0.3 0 0.1 0.1 0.5 0.7 1 1 1 0.4 0.6 0.3 0.5 0.1 0.4-0.1 0.6-0.1 0.5-0.4 1.1-0.2 0.4 0.1 0.7 0.2 0.9 1 2.7 0.4 0.6 0.3 0.2 0.8 0.1 0.5-0.1 0.4-0.3 0.4-0.5 0.3-0.5 0.2-0.4 0.2-0.3 1.4-1.3 0.3-0.1 1.1 0.3 1 0 0.4 0.2 0.4 0.4 1.4 1.9 0.7 0.4 0.4 0 0.8-0.4 0.3 0 0.2 0.2 0.2 0.3 0.4 0.3 0.5 0.3 2.5 0.3 0.2 0.1 0.1 0.2 0 0.3-0.1 0.3-0.1 0.4-0.5 1.2-0.1 0.6 0.3 0.8 0.4 0.5 0.9 0.3 1.1 0.1 0.3 0.2 0.3 0.4 0.3 0.5 0.3 0.3 1.8 0.6-0.5 0.6-0.1 0.4-0.2 0.8 0 0.8 0.1 0.8 0.2 0.7 0.7 1.1 0.5 1.3 0.1 0.1 0.3 0 0.3-0.1 0.3-0.3 0.2-0.3 0.5-0.9 0.3-0.3 0.6-0.4 0.2-0.2 0.1-0.2 0.1-0.3 0-0.3 0.2-0.2 0.2-0.1 0.6 0 3.7-1 0.6 0 0.4 0.2 0.9 0.3 1 0.2 0.2 0.1 0.3 0.2 0.4 0.5 1.1 0.5 0.6 0.4 0.5 0.6 0.3 0.8 0 0.7 0 0.6 0.2 0.5 1 1.1 1.6 1 0.2 1-0.2 0.7-0.5 1-0.6 0.8-0.5 0.4-0.6 0.3-2.5 0.8-1.2 0.7-0.4 0.1-2 0-0.5 0.1-1 0.4-0.5 0.1-0.2 0.2-0.2 0.2-0.4 0.9-0.2 0.7-0.1 0.8 0.1 1.6-0.2 2.7 0.1 0.8 0 0.5-0.1 0.3-0.2 0.5 0.1 0.2 0.7 0.7 0.6 0.8 2 3.8 0.6 1.3 0.3 1.1 0.2 1.7 0 0.7 0 0.6-0.1 0.2 0 0.5 0 0.4 0.1 0.6 0.5 1.4 0.9 1.3-1.5-0.2-1 0.1-0.9 0.4-2.1 1.3-0.8 0.6-0.6 0.7-0.5 0.8-0.8 0.8-0.7 0.2-0.5 0-0.4-0.3-0.3-0.4-0.4-0.3-4.2-0.8-1-0.3-0.2-0.2-0.1-0.4 0-0.4 0.2-0.5 0.1-0.5 0.1-0.4 0-0.4-0.1-0.4-0.1-0.2-0.2-0.3-1.4-0.9-0.5-0.8 0.2-0.6 0.4-1.1 0.2-1.2-0.1-1.1-1-2.5-0.5-2.4-0.4-0.7-0.9-0.2-0.8 0-1.2 0.5-0.5 0-0.4 0-0.5-0.2-1.6-1.8-0.2-0.7-0.2-1.2-0.5-0.6-0.5-0.5-0.5-0.9-0.6-2.1 0.1-1.2 0-0.6-2-1.4-0.1-0.2 0-0.2 0-0.2-0.1-0.2-0.2-0.1-0.5-0.1-0.1-0.1-0.6-1.1-0.3-0.3-1-0.3-0.8-0.5-1.1-0.4-0.6-0.6-0.3-1-0.1-1.2 0.1-0.3 0.2-0.5 0.1-0.1 0-0.4-0.2-0.5 0-0.3-0.1-0.3-0.1-0.4-0.3-0.4-0.9-0.5-1-0.7-0.7-1-0.1-1.1-0.2-0.1-0.6-0.6 0.6-0.9-0.1-0.7-0.9-1.5-0.1-0.4-0.1-1.2 0-0.5-0.2 0-0.9 0.1-0.4-0.3 1-0.9 0.3-0.4-0.3-0.2-0.7-0.1-0.6-0.1-0.5-0.4-0.6-0.6 0.8 0 0.4-0.1 0.5-0.2-0.5-0.3-0.4-0.1-1-0.1 0-0.3 0.3-0.4 0.2-0.3 0.2-0.4 0.7-0.2 0.2-0.3 0-0.4-0.2-0.3 0.1-0.7-0.2-0.5-0.4-0.4-0.3-0.4-0.1-0.1-0.1-0.3-0.1-0.2-0.2-0.2-0.3 0.1-0.5 0.3-0.2 0-0.5-0.6 0.4-0.7 0.8-0.8 0.6-0.9-1.5 0 0.7-0.5 0.3-0.5-0.1-0.7-0.9-2-0.2-0.2-0.3 0-0.2 0.3-0.2 0.3-0.2 0.2-0.5 0.8-0.4 3.8-0.4 1.1-0.2-0.9-0.7 0.1-0.5 0 0.3-1.5-0.3 0.1-0.3-0.1-0.3-0.1-0.3-0.2 0.3-0.6 0-0.7-0.2-0.9-0.1-0.9 0.1-0.9 0.3-0.7 0.4-0.4 0.4-0.3-0.5-0.5-0.5-0.3 0.2-0.1 0.4-0.3-0.6-0.6-0.2-0.2 0.4-0.8-0.1-2.5z" id="SEN" name="Halland">
  </path>
  <path d="M542.6 815.2l0.3 0.3 0.9 1.6 0.2 0.5-2.1 0.2-0.9 0.8-0.1 2.1-0.4-0.5-0.4-0.3-0.2 0.2-0.1 0.6-0.3 0.5-0.1 0.6 0 0.6 0.2 0.7-1.2 0.3-1.1 0-0.4-0.1-0.6-0.5-0.3-0.1-0.4 0.1-0.1 0.4 0.1 0.5 0.1 0.5-0.5 1.9-0.5 1.4-0.1 0.6-0.2 0.4-0.1 0.4-0.1 0.6 0.2 0.1 1.3 0.4-0.3 0.9-0.2 0.8-0.1 0.8-0.1 0.9-0.2 0.7-0.4 0.8-0.2 0.8 0.4 0.5-0.2 0.9 0.1 0.6 0.4 0.2 0.5-0.1-0.1 0.3-0.3 0.9 1.2 0.5 1.2 0.2 0.2-0.1 0-0.4 0.2-0.2 0.4 0.2 0.4 0.3 0.2 0.2 0.2 0.4 0.2 0.6 0.1 0.8-0.1 0.6-0.5 0.3-1 0-0.1 0-0.3-0.3-0.2 0-0.1 0.1-0.4 0.5-0.2 0.1-1 0.3-1 0.6-0.8 1-0.7 1-1.2 1.1-0.4 0.7 0.2 1.1 0.2 0.1 0.7-0.1 0.2 0.2 0.1 1.8-1 0.5 0 0.2-2.7 0.6-0.8 0.5 0 0.5 0.4 0 0 0.3-0.7 0.2-3.8 2.1-0.7 0.7-0.6 0.8 2.1 0-0.8 0.6-2.1 1.2-0.5 0.7-0.2 2.9 0.3 0.7 0.5 0.4 1.1 0.4-1.7 0 0 0.4 0.4 0.4-0.8 0.7-0.3 0.5-0.3 1.1-0.4 0.4-2.9 1.5-1 0.1-0.9-0.5 1.9-3.6 0.1-0.5 0-0.5-0.1-0.7 0.4-0.5 1.1-0.4 0.4-0.5 0.3-0.7 0.2-1.5 0.3-0.6-0.8 0.4-0.6 0.8-0.7 0.6-0.6-0.3 0-0.4 0.4-0.5 0.3-0.7 0.1-0.8-0.4-0.3 0.1-0.3 0.2-0.5 0.1-0.3-1.3-0.6-0.8-4.8-1.8-1.6 0-1.1 0.5-1.1 1.1-0.9 0.4-1 0.2-1.2-0.2-0.8 0.4-0.7-0.1-0.4-0.3-0.2-0.2-0.2-0.1-0.3-0.3-0.5-0.1-0.3 0.1-0.7-0.1-0.4-0.3-0.7-0.4-1.1-0.2-1.3 0-1.3 0.4-2.1 1.1-1.7 4.9-5.4 4.2-7.4 1.1-1.3 1.6-0.8 0.4 0.1 0.4 0.3 0.5 0.1 0.4-0.3 0.2-0.4 0.2-0.8 0.2-0.6 0.4-1 0.5-0.9 0.6-0.7 0.7-0.5 0.7-0.1 0.6 0.3 0.4 0.7 0.4 1.1 0 0.2 0 0.3-0.1 0.2-0.1 0.2 0.1 0.4 0.1 0.1 0.2 0.1 0 0.2 0.1 0.6 0.2 0.4 0.5 0.8 0.3-1.5 0.5-0.7 0.5-0.5 0.2-1-0.1-0.4-0.3-0.4 0-0.4 0.4-0.2 1.9-0.4 0 0.4-0.5 1 0.6 0.5 0.7 0 0-0.8 0.5-0.3 0.6-0.2 0.6 0 0.4 0.2-0.2 0.3 0.1 0.6 0.2 0.6 0.4 0.6 0.4 0.2z m7.1-6.2l1 0 0.5 0.2 0.5 0.5-0.2 0.3-0.2 0.1-0.2 0.1-0.3-0.1-0.4 0.8-1.5-0.5-0.6 0.3-0.7 0.7-1.3 0.5-0.6 1 0.4 0.3 0.2 0.4 0.1 0.4-0.1 0.5-0.9 1.6 0 0.3-0.5-0.1-0.5-0.2-0.4-0.4-0.4-0.5-1.1-2.1 0.1-0.7 0.2-0.4 0.7-0.9 0.2-0.5 0.1-0.6 0.2-0.6 0.4-0.4 0.5-0.2 1 0 0.5-0.4 0.2 0 0.5 0.1 0.6 0.1 0.5-0.4 0.1 0.9 0.4 0.2 1-0.3z m1.8-22.5l-1.2 1-1.3 0.4-1.1-0.7-0.8-2.3 1.1 0 0.8 0.5 1.7 0.4 0.8 0.7z" id="SEI" name="Gotland">
  </path>
  <path d="M433.8 696.8l0.3-0.9 0.3-0.6 0.3-0.6 0.8-0.8 0.2-0.7 0.2-1.1 0.3-0.7 0.7-0.5 1.1 0 0.8 0.4 0.8 0.5 0.5 0.1 0.6-0.3 0.8-0.9 0.3-0.6 0.1-0.4 0-2.3 0-0.3 0-0.3-0.1-0.4-0.3-0.5-0.1-0.4 0.1-0.5 0.5-0.8 0.4-0.8 0.5-1.5-0.1-0.3-0.1-0.3 0-0.5 1.4-1.5 0.6-0.4 0.6 0 0.8 0.2 0.2 0 1.8-0.8 0.7-0.1 0.8 0 1.1 0.3 0.6 0.4 0.7-0.2 0.3 0.3 0.5 0.3 1 0.3 0.5 0.2 0.7 0.8 0.2 1.4 0.1 0.4 0 0.5 0.1 0.5 0.3 0.4 0.9 0.6 0.5 0.3 3 0.3 1.3-0.2 1.8-0.6 0.8-0.5 0.7-0.7 1.4-2.7 1.1-1.3 4.4-1.2 0.6-0.4-0.1-0.8 1.3 0.6 0.7-0.1 0.8-0.2 3.2-2.2 0.4-0.6 0-0.5 0-0.4 0-0.4 0.2-0.3 0.5-0.6 0.5-0.2 0.4-0.1 1.2 0.2 0.2 0 0.1 0.2 0.3 0.1 2.5 0.3 0.5-0.2 0.6-0.6 2.1-0.8 4.3 3.6 0.6 0.7 0.2 0.9-0.3 1.5-2.4 7.5-0.5 1.1-0.6 0.6-0.4 0.1-0.8-0.1-0.3 0.1-0.3 0.4-0.9 1.9-0.4 0.6-0.1 0.2 0 0.3 0.2 0.6 0.4 0.3 0.4 0.3 0.3 0.3 0.1 0.7 0 1-0.2 1.5-0.3 1-0.4 0.8-1.6 1.1-1.3 1.1-0.5 0.4-0.6 0.2-0.4-0.2-0.3-0.4-0.4-0.8-0.2-0.2-1.7-0.3-2.1-0.8-0.4-0.1-0.3 0-0.1 0.4 0 0.5 0.1 1.4-0.2 0.8-0.4 0.6-1.4 1-0.2 0.5 0.3 0.8 3.2 7 0.5 1.7 0.9 4.7 0.3 0.9 0.3 0.9-1.8 1.3-0.4 0.1-0.9 0.1-0.5-0.1-17 3.3-0.4 0.3-0.2 0.4 0.1 0.6 0.1 0.5 0.2 0.4 0.3 0.3 0.6 0.4 0.1 0.2 0.1 0.2-0.1 0.3-0.1 0.3-0.4 0.3-0.6 0.5-2.2 0.8-0.9 0.2-0.7 0-1.9-0.6-0.6 0-0.8 0.1-1.2 0.5-0.6 0.5-0.3 0.4-1.9 3.3-0.2 0.5 0 0.5 0 0.6 0 0.5-0.2 0.6-0.6 0.6-0.7 0.6-2.4 0.9 0.7-1.1 0.1-0.3 0-0.3-0.4-0.1-1.3 0.1-0.4-0.2-0.4-0.6-0.7-1.2-0.8-0.8-1.2-0.6-0.2-0.3 0.1-0.6 0.8-2.3 0-0.2-0.1-0.3-0.4-0.4-0.2-0.5-0.1-0.6 0.1-0.7 0.2-0.7 0.2-0.3 2.3-0.8 0.6-0.4 0.3-0.7 0-0.9-0.2-0.8-0.7-1.1-0.1-0.3 0-0.3 0-0.1 0-0.1 0.6-1.2 0.1-0.6-0.1-0.5-0.3-0.4-0.3-0.1-0.8 0.1-0.4-0.1-0.3-0.5-0.1-0.8-0.1-1.7-0.2-1-0.5-0.8-0.6-0.1-1.2 0-0.4-0.1-0.3-0.4-0.1-0.8 0-1.5 0.6-2.7 0.2-1.2-0.2-1.2-0.5-1.8-0.5-1-1-0.6-0.6-0.2-0.4-0.3-0.1-0.3 0.3-0.5 0.1-0.5-0.1-0.6-0.5-0.9-0.3-0.7z" id="SEU" name="Västmanland">
  </path>
  <path d="M362.8 855.4l0.6-0.6 0.5-0.8 1.7-3.2 0.7-1.1 0.6-0.5 0.5-0.1 0.2-0.1 0.2-0.3 0.5-1.6 0.5-0.7 0.6-0.4 1.2-0.6 1.2-1.1 1.9-2.4 1.3-1.1 0.3-0.4 0.4-0.7 1.7-3.5 1.2-2.1 1-1.1 0.4-0.6 0.2-0.8 0.1-2.1 0.1-0.8 0.3-0.9 0.6-1.1 0.1-0.6-0.1-1.2-0.1-0.6 0.1-0.7 0.3-1.4 0.2-0.6 0.2-0.4 0.3-0.5 0.2-0.5 0.1-0.8 0-0.8-0.5-2.6 1.6 0.1 0.7 0.2 3.1-0.4 0.7 0.3 0.8 0.7 0.7 0.4 0.5 0.1 0.3-0.1 0.2-0.3 0-0.4 0.1-0.5 0.1-0.4 0.1-0.3 0.1-0.2 0.3-0.1 1.5-0.7 0.1-0.1 0.2-0.3 1.9-0.9 1-0.6 0.6-0.7 0.4-0.8 0.1-0.7 0-0.6-0.3-1.5-0.1-0.5 0-0.1 5.8-12.9 1.8 4.1 0.9 1.1 2.5 1.3 7.2 1 1.2-0.1 0.6-0.3 0.5-0.6 0.2-0.5 0.2-1 0.1-0.3 0.3-0.2 1.7-0.5 0.2 0.1 0.2 0.3 0.1 0.4 0.6 1.2 0.2 0.7 0.4 1.4 0.2 1.3 0.1 0.3 0.2 0.5 0.8 1.1 0.2 0.4 0.1 0.4-0.1 0.3-0.2 0.2-0.2 0.2-0.3 0.1-0.7 0.2-0.2 0.3-0.2 0.4-0.1 0.6-0.1 0.4-0.3 0.7 0 0.3 0.2 0.5 0.1 0.3-0.1 0.4-0.1 0.3-0.1 0.6 0.3 0.6 1.1 1.9 0.3 0.7 0.2 0.7 0.1 0.7 0.1 0.8 0.4 1.2 0.8 2 0.6 1.3 0.7 0.7 0.7 0.2 7.4 0.7 0.7 0.9 0.3 0.3 1 0.8 1 0.9 0.3 0.2 0.6 0.1 0.2 0.1 0.2 0.1 0.6 0.4 0.3 0.2 0.3 0.3 0.2 0.5 0.1 0.3 0.3 0.3 0.6 0.2 0.1 0.2-0.1 0.4-1.4 2.1-0.1 0.4 0.1 0.5 0.3 0.2 0.7 0.3 0.3 0.2 0.1 0.4 0 0.6 0 0.6-0.3 0.4-0.1 0.1 0 0.1-0.3 0.5-0.1 0.6-0.2 1-0.3 0.5-0.2 0.3-0.3 0-0.2-0.2-0.2-0.3-0.2-0.4-0.2-0.2-0.2-0.2-0.3 0-0.3 0.1-0.3 0.3-0.3 0.5-0.1 0.8 0.2 1.5 0 0.5-0.3 1.1-0.1 0.6 0.2 1.6-0.1 0.9-0.3 0.4-0.4 0.4-0.1 0.3-0.1 0.5 0.1 0.6 0.2 0.8 1.2 2 0.2 1.6-4.1-1.3-1.4-0.2-4.1 0.2-0.4-0.1-1.7-0.3-0.2 0.2 0.4 1.3 0.1 0.6 0 0.4-0.2 0.1-1.2-0.3-0.7 0.2-0.9 0.6-1.6 1.6-0.7 0.4-0.5 0.1-1-0.2-0.7-0.4-0.4-0.6-0.2-0.6-0.1-0.6-0.4-0.5-2.5-1.5-1.2 0-1.6 0.5-5.2 2.4-3.5 0.7-0.8 0.4-0.7 0.8-0.3 1-0.1 3-0.4 1.6 0 0.5 0 0.6 0.3 0.5 0.3 0.3 0.4 0.4 0.1 0.1 0 0.5 0.1 0.9 0 0.5 0 0.5-0.7 1.6-1.1 1.9-0.1 0.1-0.1 0.1-0.2 0.1-1-0.2-0.9-0.5-0.5-0.5-0.3-0.4-1.2-3.7-0.5-1.1-0.2-0.2-0.4-0.5-0.5-0.4-0.8-0.5-0.8-0.7-0.7-0.3-0.4-0.1-0.5 0.1-0.8 0.3-0.8 0-1 0.3-2.4 1.9-0.3 0.1-0.3-0.1-1.3-1.2-0.9-0.5-0.5 0.1-0.3 0.2-1.8 2.6-1.6-1-1-1.1-0.2-0.5 0-0.6 0-0.7-0.3-0.8-0.5-0.6-0.6-0.4-1.1-0.5-0.4-0.5-0.3-0.2-0.2-0.1-1-0.2-0.9-0.3-0.4-0.2-0.6 0-3.7 1-0.6 0-0.2 0.1-0.2 0.2 0 0.3-0.1 0.3-0.1 0.2-0.2 0.2-0.6 0.4-0.3 0.3-0.5 0.9-0.2 0.3-0.3 0.3-0.3 0.1-0.3 0-0.1-0.1-0.5-1.3-0.7-1.1-0.2-0.7-0.1-0.8 0-0.8 0.2-0.8 0.1-0.4 0.5-0.6z" id="SEF" name="Jönköping">
  </path>
  <path d="M403.3 687.5l8.1 1.1 0.8 0 0.8-0.3-0.6-2.2 0.2-1.2 0.4-1.2 1.3-1.1 0.6-0.2 0.5 0 0.1 0.2 0 0.2 0 0.3 0.1 0.4 0.2 0.3 0.6 0.5 1.4 0.8 2.7 0.7 6.7 3 0.6 0.4 0.3 0.3 5.7 7.3 0.3 0.7 0.5 0.9 0.1 0.6-0.1 0.5-0.3 0.5 0.1 0.3 0.4 0.3 0.6 0.2 1 0.6 0.5 1 0.5 1.8 0.2 1.2-0.2 1.2-0.6 2.7 0 1.5 0.1 0.8 0.3 0.4 0.4 0.1 1.2 0 0.6 0.1 0.5 0.8 0.2 1 0.1 1.7 0.1 0.8 0.3 0.5 0.4 0.1 0.8-0.1 0.3 0.1 0.3 0.4 0.1 0.5-0.1 0.6-0.6 1.2 0 0.1 0 0.1 0 0.3 0.1 0.3 0.7 1.1 0.2 0.8 0 0.9-0.3 0.7-0.6 0.4-2.3 0.8-0.2 0.3-0.2 0.7-0.1 0.7 0.1 0.6 0.2 0.5 0.4 0.4 0.1 0.3 0 0.2-0.8 2.3-0.1 0.6 0.2 0.3 1.2 0.6 0.8 0.8 0.7 1.2 0.4 0.6 0.4 0.2 1.3-0.1 0.4 0.1 0 0.3-0.1 0.3-0.7 1.1-0.2 0.6 0.1 0.5 0.2 0.9 0.8 2.1 0 0.5-0.1 0.4-0.4 0.4-0.7 0.4-0.8 0.2-0.5 0.3-0.4 0.3-0.3 0.7-1.1 1.1-0.4 0.6-0.3 0.5-0.1 0.6 0.3 0.7 0.3 0.5 1.9 1.8-1.3 0.6-0.8 0.1-0.9 0.4-0.6 0.6-0.3 0.5 0 0.4 0.1 0.4 0.1 0.7-0.2 0.9-0.8 1.3-0.8 0.6-3.4 1.7-0.9 0.3-0.8-0.1-1.1-0.4-0.8 0-0.9 0.2-3.3 2.2-0.9 1-2.4 3.6-1 1.3-0.6 0.5-3.5 1-1.1 0.7-1.4 1.4-2-1.5-0.6-0.9-0.4-1.5-0.6-1.3-0.6-0.4-0.6-0.2-0.3 0.2-0.2 0.3-0.1 0.3 0 0.3-0.3 0.3-0.5 0.4-0.6 0.3-0.2 0-0.2-0.2-0.1-0.5-0.4-0.2-1.2-0.2-0.7-0.4-0.3-0.6 0-1.1-0.2-0.9-0.4-1-1.7-2.8-0.3-0.9-0.1-0.7 0.1-0.8-0.1-0.5-0.2-0.7-0.6-1.3-0.6-1.5-0.5-1.6-0.2-0.5-0.5-1.6 0.5-2.4 0.1-2.4-0.1-1.2-0.4-1.8-0.1-0.8-0.1-2.7 0.2-2 0.4-3.6 0.6-2.4 0.7-2.1 1.1-2.5 0.2-0.7 0.1-0.4 0.2-0.3 1-1.2 0.3-0.6 0.2-0.6-0.1-0.9-0.1-0.2-0.6-0.6-0.3-0.5-0.2-0.6 0-0.7 0.2-1 0.2-0.5 0.3-0.1 0.3 0.1 0.4 0.2 0.1-0.4 0.1-0.9-0.3-2.5-0.2-1.2-0.4-1.4-0.3-1.1-0.3-2.4 0-1.5 0.1-3.9-0.3-5.4-0.3-1.2-0.5-0.6-1-0.7-0.3-0.3-0.2-0.4 0.1-0.5 0.5-0.4 2.6-1.7-0.2-2.1z" id="SET" name="Orebro">
  </path>
  <path d="M436.7 852.3l0.8 0.7 0.2 0.4 0.1 0.5-0.1 0.8 0.2 0.7 0.5 0.4 1.7 0.8 0.3 0.3 0.1 0.2 0 0.3 0.1 0.4 0.3 0.4 1.3 1.4 0.3 0.4 0.3 0.6 1.6 2.4 0.3 0.5 0.1 0.4 0 0.3 0.1 0.3 0.6 1.2 0.2 0.8 0 0.8-0.4 0.9-0.7 0.8-0.9 0.3-2.7 0-0.6 0.3-0.2 0-0.3 0-1.9-1.1-0.6-0.1-0.4 0.1-0.4 0.2-0.4 0.4-0.2 0.4 0 0.6 0.5 1.4 0.3 0.9 0.1 0.8 0.1 0.7-0.1 0.5-0.3 0.4-0.4 0.4-0.4 0.1-1.4 0.1-0.5 0-0.3 0.3-0.4 0.4-0.3 0.2-0.7 0.4-0.3 0.4 0 0.5 0.2 1.2 0.4 1.4 0.1 0.7 0.1 1.1-0.3 5 0 1-0.1 0.6-0.3 0.4-0.3 0.2-0.3 0.4-0.2 0.5-0.4 1.7 0 0.2 0 0.3 0.2 0.5-0.6 0.7-0.4 0.1-0.4 0-0.9-0.2-0.6 0-0.6 0.2-0.3 0.3-0.2 0.4-0.1 0.3-0.2 0.2-0.2 0.2-0.3 0-0.5-0.1-0.7-0.3-0.9-0.6-0.4-0.1-0.6 0-1.4 0.4-1.3 0.1-0.3 0.1-0.3 0.2 0 0.4-0.1 0.4-0.2 0.4-1.1 1.5-1 0.9-0.6 0.2-0.8 0-4.4-1.3-0.7-0.4-1.1-1-1.1-1.2-1-0.8-1.7-0.7-5.5-1.7-1.5-0.7-0.9-0.2-3.6 0.1-0.4-0.2-0.7-0.7-0.5-0.2-0.4 0.1-0.5 0.4-0.5 0.4-0.2 0.4-0.1 0.4-0.2 0.7-0.1 0.3-0.6 0.4-0.9 0.4-12.6 3-2.3 0-0.9-1.3-0.5-1.4-0.1-0.6 0-0.4 0-0.5 0.1-0.2 0-0.6 0-0.7-0.2-1.7-0.3-1.1-0.6-1.3-2-3.8-0.6-0.8-0.7-0.7-0.1-0.2 0.2-0.5 0.1-0.3 0-0.5-0.1-0.8 0.2-2.7-0.1-1.6 0.1-0.8 0.2-0.7 0.4-0.9 0.2-0.2 0.2-0.2 0.5-0.1 1-0.4 0.5-0.1 2 0 0.4-0.1 1.2-0.7 2.5-0.8 0.6-0.3 0.5-0.4 0.6-0.8 0.5-1 0.2-0.7-0.2-1 1.8-2.6 0.3-0.2 0.5-0.1 0.9 0.5 1.3 1.2 0.3 0.1 0.3-0.1 2.4-1.9 1-0.3 0.8 0 0.8-0.3 0.5-0.1 0.4 0.1 0.7 0.3 0.8 0.7 0.8 0.5 0.5 0.4 0.4 0.5 0.2 0.2 0.5 1.1 1.2 3.7 0.3 0.4 0.5 0.5 0.9 0.5 1 0.2 0.2-0.1 0.1-0.1 0.1-0.1 1.1-1.9 0.7-1.6 0-0.5 0-0.5-0.1-0.9 0-0.5-0.1-0.1-0.4-0.4-0.3-0.3-0.3-0.5 0-0.6 0-0.5 0.4-1.6 0.1-3 0.3-1 0.7-0.8 0.8-0.4 3.5-0.7 5.2-2.4 1.6-0.5 1.2 0 2.5 1.5 0.4 0.5 0.1 0.6 0.2 0.6 0.4 0.6 0.7 0.4 1 0.2 0.5-0.1 0.7-0.4 1.6-1.6 0.9-0.6 0.7-0.2 1.2 0.3 0.2-0.1 0-0.4-0.1-0.6-0.4-1.3 0.2-0.2 1.7 0.3 0.4 0.1 4.1-0.2 1.4 0.2 4.1 1.3z" id="SEG" name="Kronoberg">
  </path>
 </g>
 <g id="points">
  <circle class="56.02736200368693|11.760927344514418" cx="321.6" cy="917.7" id="0">
  </circle>
  <circle class="61.504833075544866|18.28855165779902" cx="519.8" cy="596.2" id="1">
  </circle>
  <circle class="68.3516719153673|23.5106511084267" cx="678.4" cy="102.7" id="2">
  </circle>
 </g>
 <g id="label_points">
  <circle class="Norrbotten" cx="572.9" cy="223.2" id="SEBD">
  </circle>
  <circle class="Västerbotten" cx="504.3" cy="376" id="SEAC">
  </circle>
  <circle class="Jämtland" cx="385.9" cy="502.7" id="SEZ">
  </circle>
  <circle class="Dalarna" cx="406.6" cy="640.3" id="SEW">
  </circle>
  <circle class="Värmland" cx="364.6" cy="704.5" id="SES">
  </circle>
  <circle class="Västra Götaland" cx="356.3" cy="803.3" id="SEO">
  </circle>
  <circle class="Västernorrland" cx="494.7" cy="470.4" id="SEY">
  </circle>
  <circle class="Gävleborg" cx="462.7" cy="591" id="SEX">
  </circle>
  <circle class="Uppsala" cx="504.2" cy="684.3" id="SEC">
  </circle>
  <circle class="Stockholm" cx="504.9" cy="723.2" id="SEAB">
  </circle>
  <circle class="Södermanland" cx="471.6" cy="744.5" id="SED">
  </circle>
  <circle class="Östergötland" cx="440.9" cy="783.5" id="SEE">
  </circle>
  <circle class="Kalmar" cx="452.3" cy="845.1" id="SEH">
  </circle>
  <circle class="Blekinge" cx="426.2" cy="902.9" id="SEK">
  </circle>
  <circle class="Skåne" cx="378.3" cy="923.3" id="SEM">
  </circle>
  <circle class="Halland" cx="353.6" cy="865.4" id="SEN">
  </circle>
  <circle class="Gotland" cx="526.2" cy="837.3" id="SEI">
  </circle>
  <circle class="Västmanland" cx="460.8" cy="703.7" id="SEU">
  </circle>
  <circle class="Jönköping" cx="402.6" cy="831.9" id="SEF">
  </circle>
  <circle class="Orebro" cx="420.2" cy="729.4" id="SET">
  </circle>
  <circle class="Kronoberg" cx="412.1" cy="874.6" id="SEG">
  </circle>
 </g>
</svg>